<?xml version="1.0" standalone="no"?>
<!DOCTYPE svg PUBLIC "-//W3C//DTD SVG 20010904//EN"
 "http://www.w3.org/TR/2001/REC-SVG-20010904/DTD/svg10.dtd">
<svg version="1.0" xmlns="http://www.w3.org/2000/svg"
 width="2142.000000pt" height="1205.000000pt" viewBox="0 0 2142.000000 1205.000000"
 preserveAspectRatio="xMidYMid meet">

<g transform="translate(0.000000,1205.000000) scale(0.100000,-0.100000)"
fill="#000000" stroke="none">
<path d="M5927 10240 c-377 -64 -671 -355 -747 -741 l-11 -57 -67 34 c-72 37
-179 64 -252 64 -137 0 -297 -67 -394 -164 -96 -96 -165 -251 -166 -370 0 -35
-2 -38 -22 -32 -13 4 -47 12 -75 18 -150 34 -306 -73 -335 -228 -13 -70 -1
-137 24 -142 13 -3 15 9 15 75 -1 89 17 136 75 189 54 52 96 68 168 68 51 0
76 -6 117 -27 29 -15 57 -27 63 -27 6 0 10 28 10 68 0 148 54 276 158 379 113
113 273 167 426 145 79 -12 177 -50 237 -93 43 -30 55 -20 63 52 34 301 259
588 548 699 522 201 1086 -120 1182 -673 8 -45 12 -84 9 -87 -2 -3 -64 -3
-136 -2 -205 5 -374 -41 -535 -148 -226 -149 -371 -388 -402 -664 -10 -86 -7
-116 14 -116 9 0 17 31 25 101 24 214 106 384 257 534 96 96 156 137 281 190
118 51 223 69 367 62 163 -7 283 -42 413 -118 73 -43 212 -176 269 -256 84
-116 139 -271 151 -421 3 -45 10 -85 14 -88 5 -3 46 33 91 79 94 96 154 126
268 134 227 18 416 -133 455 -362 8 -49 16 -70 26 -70 35 0 16 127 -34 227
-75 152 -237 248 -418 248 -114 0 -239 -52 -314 -130 -16 -16 -32 -30 -36 -30
-5 0 -11 17 -14 38 -39 234 -151 443 -307 571 -90 74 -213 144 -309 176 l-78
26 -6 47 c-23 175 -68 300 -157 433 -133 200 -351 343 -583 384 -92 16 -247
18 -328 5z"/>
<path d="M13228 9509 c-218 -29 -404 -200 -463 -424 -20 -78 -20 -175 -1 -175
10 0 17 17 21 58 23 206 132 371 299 452 152 74 281 74 435 -1 107 -53 187
-132 236 -233 37 -77 65 -179 65 -238 0 -51 19 -49 72 8 57 62 107 86 179 86
115 0 211 -83 239 -204 17 -76 18 -78 35 -72 19 8 19 33 -1 103 -54 193 -266
275 -431 166 -36 -24 -55 -31 -57 -23 -2 7 -11 42 -20 76 -41 159 -154 300
-296 372 -96 49 -196 64 -312 49z"/>
<path d="M10460 9493 c-58 -6 -80 -13 -80 -26 0 -9 53 -12 222 -12 253 -1 335
-13 553 -86 573 -190 992 -668 1117 -1273 13 -61 29 -111 36 -114 31 -10 -1
180 -59 351 -218 638 -788 1087 -1468 1156 -98 10 -244 12 -321 4z"/>
<path d="M9659 9209 c-178 -123 -333 -274 -452 -439 -77 -109 -184 -318 -223
-435 -73 -222 -103 -467 -85 -686 18 -218 70 -430 106 -437 20 -5 21 -7 -19
142 -132 498 -20 1041 301 1453 116 150 282 301 431 392 52 33 68 61 34 61
-10 0 -52 -23 -93 -51z"/>
<path d="M10455 9149 c-597 -71 -1079 -521 -1195 -1116 -27 -139 -30 -346 -5
-488 38 -226 141 -457 283 -633 19 -24 32 -46 28 -49 -3 -3 -113 -1 -243 6
-509 25 -708 31 -1273 41 -1480 24 -3671 -40 -5640 -165 -175 -12 -264 -22
-311 -35 -134 -40 -250 -159 -282 -292 -15 -65 -116 -774 -142 -998 -51 -454
-85 -1132 -66 -1325 5 -60 15 -207 21 -325 14 -267 31 -448 75 -801 19 -153
35 -284 35 -293 0 -9 -18 -27 -39 -42 -26 -17 -50 -46 -70 -86 -28 -55 -31
-68 -31 -157 0 -106 17 -159 69 -214 53 -58 69 -61 281 -65 224 -3 256 4 276
67 10 30 17 36 65 48 100 26 125 51 247 253 62 101 80 126 88 118 3 -4 -2 -20
-10 -36 -9 -17 -26 -65 -38 -109 -30 -103 -32 -332 -4 -433 74 -269 228 -458
476 -586 l75 -39 -660 -5 c-618 -5 -660 -6 -663 -22 -3 -17 434 -18 9007 -20
l9011 -3 0 22 0 23 -5187 2 -5188 3 85 43 c243 124 409 332 472 592 6 25 13
97 17 160 l6 115 77 3 77 3 40 -40 c22 -22 57 -44 78 -50 23 -7 158 -11 338
-11 l301 0 13 -36 c23 -64 33 -65 464 -62 l382 3 43 25 c27 15 54 42 70 70 26
43 27 51 27 186 0 137 -1 142 -28 182 -17 27 -45 51 -77 67 -28 14 -50 31 -50
38 0 6 -1 377 -3 822 -3 690 -6 828 -21 933 -49 363 -139 667 -286 967 -135
279 -309 524 -548 776 l-90 95 42 12 c60 16 92 45 114 105 l20 52 93 35 c454
172 780 557 876 1037 24 122 24 394 0 516 -69 344 -271 663 -545 860 -164 118
-376 208 -567 242 -114 20 -307 27 -410 14z m348 -44 c254 -38 452 -121 642
-270 323 -253 515 -641 515 -1044 0 -495 -251 -936 -673 -1183 -79 -46 -219
-106 -258 -110 -23 -3 -24 -1 -21 53 5 75 -13 138 -41 148 -67 25 -814 114
-1187 140 l-135 10 -49 53 c-95 103 -190 265 -245 421 -207 588 10 1236 527
1574 278 182 606 256 925 208z m-2068 -2244 c740 -30 1210 -63 1714 -121 267
-31 504 -69 513 -83 10 -16 9 -171 -1 -227 -7 -32 -19 -54 -45 -77 l-36 -33
-4521 0 -4522 0 6 50 c16 133 139 269 282 312 122 36 2480 150 3700 178 253 6
514 12 580 14 267 7 2088 -3 2330 -13z m-4011 -603 c9 -34 7 -1631 -2 -1646
-7 -10 -321 -12 -1538 -10 l-1529 3 3 110 c4 149 29 490 48 655 14 127 107
807 120 878 l6 32 1443 0 1443 0 6 -22z m3191 -818 l0 -835 -1577 -3 -1578 -2
0 840 0 840 1578 -2 1577 -3 0 -835z m200 0 l0 -835 -80 0 -80 0 -3 838 -2
838 82 -3 83 -3 0 -835z m2198 818 c29 -47 818 -1614 823 -1636 l6 -22 -1493
2 -1494 3 -3 825 c-1 454 0 831 3 838 3 9 228 12 1074 12 l1071 0 13 -22z
m489 -15 c21 -20 38 -41 38 -45 0 -4 -32 -8 -70 -8 -119 0 -170 -35 -170 -118
0 -38 46 -134 326 -689 275 -543 332 -648 358 -664 27 -17 52 -19 208 -19 97
0 179 -4 182 -8 3 -5 8 -28 12 -51 l7 -41 -252 2 -252 3 -419 828 c-231 456
-420 833 -420 838 0 5 91 9 207 9 l207 0 38 -37z m164 -165 c284 -302 521
-720 649 -1143 20 -66 39 -139 42 -163 l6 -43 -176 3 c-161 3 -178 5 -196 23
-30 31 -652 1266 -658 1305 -4 26 1 42 16 62 25 32 39 35 152 37 l87 1 78 -82z
m-6244 -2554 l3 -1036 28 -24 28 -24 1554 0 1553 0 31 26 31 26 0 1003 c0 551
3 1017 6 1034 l7 31 73 0 74 0 0 -390 c0 -428 4 -471 53 -526 65 -75 58 -74
514 -74 589 -1 737 -15 929 -89 353 -136 632 -477 734 -896 12 -49 29 -96 38
-102 12 -10 86 -13 289 -13 l273 0 0 -110 0 -110 -305 0 c-336 0 -354 3 -396
59 -14 19 -36 82 -55 159 -58 234 -138 396 -262 532 -169 185 -372 281 -657
310 -254 26 -547 -47 -739 -184 -80 -57 -206 -190 -260 -274 -83 -128 -142
-268 -181 -430 -19 -82 -51 -127 -102 -148 -27 -12 -316 -14 -1713 -14 -1826
0 -1718 -3 -1779 53 -13 12 -71 85 -129 162 -125 164 -149 188 -222 224 l-55
26 -660 0 c-613 0 -664 -1 -712 -18 -83 -29 -142 -91 -231 -240 -85 -142 -131
-189 -197 -201 -20 -4 -39 -5 -41 -3 -3 2 -6 79 -8 171 -4 180 -11 207 -62
226 -14 6 -108 10 -210 10 -109 0 -184 4 -184 9 0 6 -18 155 -40 333 -22 178
-46 409 -55 513 -29 367 -44 903 -29 998 l7 37 1528 0 1529 0 2 -1036z m3188
12 c0 -918 -2 -1026 -16 -1040 -14 -14 -169 -16 -1555 -16 -1526 0 -1539 0
-1559 20 -20 20 -20 33 -20 1033 0 558 3 1017 7 1020 3 4 712 7 1575 7 l1568
0 0 -1024z m2887 1013 c101 -13 211 -44 296 -82 l67 -30 0 -883 0 -884 -79 0
c-103 0 -131 -20 -139 -98 l-5 -52 -268 0 -268 0 -11 43 c-121 489 -418 839
-826 976 -179 60 -221 64 -784 70 -578 7 -555 4 -599 81 -20 37 -21 50 -21
454 l0 416 1279 0 c841 0 1306 -4 1358 -11z m368 -19 c4 -16 4 -34 1 -39 -6
-9 -150 42 -170 61 -6 4 29 8 76 8 l86 0 7 -30z m540 8 c25 -113 49 -718 28
-718 -6 0 -18 21 -28 48 -81 215 -237 413 -427 541 l-78 52 0 49 0 50 250 0
250 0 5 -22z m-427 -173 c167 -113 312 -300 388 -502 61 -160 66 -208 71 -696
3 -246 2 -459 -1 -472 l-6 -25 -260 0 -260 0 0 865 c0 476 3 865 8 865 4 0 31
-16 60 -35z m-1975 -1592 c190 -56 337 -205 393 -398 20 -70 22 -205 5 -280
-36 -150 -158 -307 -291 -372 -231 -113 -487 -73 -664 103 -109 110 -166 246
-166 399 0 380 363 655 723 548z m-5993 -91 c0 -4 -21 -15 -48 -24 -121 -43
-235 -163 -273 -289 -17 -57 -21 -89 -17 -168 3 -89 7 -105 41 -175 49 -98
115 -164 213 -212 68 -34 86 -39 171 -42 205 -9 358 79 443 253 114 234 14
511 -225 621 -41 19 -75 37 -75 39 0 3 50 5 111 5 l111 0 63 -61 c110 -105
168 -246 168 -404 0 -159 -52 -284 -168 -400 -110 -111 -242 -165 -400 -165
-313 0 -564 252 -565 567 0 140 42 256 132 364 75 90 93 99 216 99 56 0 102
-3 102 -8z m242 -52 c166 -51 280 -195 295 -370 33 -389 -441 -607 -718 -331
-163 163 -167 418 -9 585 114 120 276 164 432 116z m-1376 -14 c18 -13 19 -28
19 -221 0 -266 19 -245 -229 -245 -169 0 -185 2 -226 23 -69 34 -90 84 -90
214 0 139 25 198 95 229 44 20 404 19 431 0z m9650 -12 c62 -46 69 -65 72
-197 3 -111 1 -126 -20 -167 -44 -86 -39 -85 -475 -88 -374 -3 -383 -2 -403
18 -19 19 -20 32 -20 220 0 188 1 201 20 220 20 20 30 21 410 18 375 -3 390
-4 416 -24z m-7453 -205 c70 -93 98 -122 140 -145 l52 -29 1705 0 c1608 0
1707 1 1737 18 18 9 43 28 55 42 26 27 34 29 134 27 l71 -2 6 -102 c20 -358
203 -633 523 -785 l59 -28 -1282 -3 c-705 -1 -1861 -1 -2570 0 l-1288 3 57 27
c249 117 415 306 495 565 24 79 27 103 27 243 0 140 -3 164 -27 243 -15 48
-27 90 -27 93 0 8 37 -38 133 -167z"/>
<path d="M4949 6161 l-29 -29 0 -690 0 -689 26 -27 27 -26 1352 0 1353 0 26
31 26 31 0 679 c0 448 -4 687 -10 700 -28 51 34 49 -1405 49 l-1337 0 -29 -29z
m2699 -12 c17 -6 35 -22 41 -37 8 -19 11 -218 9 -685 l-3 -659 -24 -19 c-23
-18 -59 -19 -1348 -19 l-1324 0 -24 25 -25 24 0 655 c0 471 3 662 11 680 7 14
24 30 38 35 38 14 2609 14 2649 0z"/>
<path d="M5073 6075 c-17 -7 -36 -22 -42 -34 -8 -13 -11 -204 -11 -601 l0
-582 29 -29 29 -29 1247 0 1247 0 29 29 29 29 0 577 c0 645 2 625 -68 644 -25
7 -438 11 -1247 11 -1006 -1 -1215 -3 -1242 -15z m2495 -41 l22 -15 0 -578 c0
-435 -3 -580 -12 -589 -9 -9 -301 -12 -1254 -12 -1143 0 -1243 1 -1255 17 -12
13 -14 117 -14 583 0 544 1 569 19 589 l19 21 1226 0 c1094 0 1229 -2 1249
-16z"/>
<path d="M8319 6161 l-29 -29 0 -690 0 -689 26 -27 27 -26 1164 0 c783 0 1171
-3 1184 -10 10 -6 19 -19 19 -28 0 -10 5 -23 12 -30 16 -16 63 -15 80 1 7 7
31 22 53 33 l40 19 3 134 c2 114 0 137 -14 152 -10 11 -25 19 -34 19 -22 0
-30 20 -30 76 0 64 -13 84 -55 84 -18 0 -37 -4 -40 -10 -3 -5 -10 -10 -15 -10
-5 0 -108 195 -229 433 -121 238 -234 451 -251 472 -48 60 -125 113 -197 135
-63 19 -91 20 -875 20 l-810 0 -29 -29z m1641 -11 c92 -15 160 -51 221 -118
42 -47 92 -138 290 -530 l240 -473 -3 -147 -3 -147 -1168 -3 -1168 -2 -24 25
-25 24 0 655 c0 406 4 665 10 681 5 14 20 30 32 35 33 13 1516 13 1598 0z
m830 -1270 c0 -210 -6 -244 -37 -219 -18 16 -19 429 -1 447 10 10 15 9 25 -5
10 -12 13 -73 13 -223z m70 -56 c0 -114 -2 -125 -17 -122 -16 3 -18 18 -21
112 -3 120 0 136 23 136 13 0 15 -19 15 -126z"/>
<path d="M1927 4203 c-10 -3 -17 -12 -15 -21 3 -16 45 -17 496 -20 445 -2 493
-1 499 14 3 9 0 20 -8 25 -14 9 -938 11 -972 2z"/>
<path d="M1914 3959 c-19 -32 16 -34 496 -34 480 0 515 2 496 34 -10 15 -982
15 -992 0z"/>
<path d="M1913 3724 c-3 -9 0 -20 8 -25 18 -11 960 -11 978 0 8 5 11 16 8 25
-6 14 -56 16 -497 16 -441 0 -491 -2 -497 -16z"/>
<path d="M1921 3501 c-8 -5 -11 -16 -8 -25 6 -14 56 -16 497 -16 441 0 491 2
497 16 3 9 0 20 -8 25 -18 11 -960 11 -978 0z"/>
<path d="M8305 4395 c-14 -13 -25 -36 -25 -50 0 -14 11 -37 25 -50 l24 -25
221 0 221 0 24 25 c14 13 25 36 25 50 0 14 -11 37 -25 50 l-24 25 -221 0 -221
0 -24 -25z m464 -29 c9 -11 10 -20 1 -35 -10 -20 -19 -21 -220 -21 -187 0
-210 2 -219 17 -6 11 -6 24 0 35 9 16 29 18 218 18 169 0 211 -3 220 -14z"/>
<path d="M11494 3800 c-65 -25 -107 -134 -107 -280 0 -120 23 -208 68 -256 77
-82 158 -5 186 176 19 126 -15 285 -72 336 -31 27 -49 33 -75 24z m73 -90 c50
-102 50 -294 0 -383 -32 -58 -50 -67 -80 -39 -74 70 -81 351 -11 450 26 38 64
26 91 -28z"/>
<path d="M9037 2680 c-229 -58 -385 -292 -348 -522 41 -255 279 -430 528 -388
345 58 508 454 301 731 -50 67 -133 131 -208 160 -63 24 -211 34 -273 19z
m260 -58 c291 -111 364 -487 137 -702 -238 -225 -629 -103 -700 218 -30 136 8
272 106 376 53 56 140 109 206 126 59 14 191 5 251 -18z"/>
<path d="M9013 2559 c-71 -28 -155 -106 -190 -177 -25 -50 -28 -68 -28 -152 0
-88 3 -101 33 -162 37 -77 90 -128 172 -167 47 -22 68 -26 145 -26 77 0 98 4
147 27 76 35 142 98 175 167 25 50 28 67 28 156 0 87 -3 107 -26 155 -33 70
-99 136 -169 169 -76 36 -211 41 -287 10z"/>
<path d="M3294 2559 c-142 -54 -233 -203 -222 -361 10 -131 84 -238 208 -297
47 -22 68 -26 145 -26 82 0 97 3 157 33 81 40 149 111 177 188 28 75 28 184 0
261 -29 79 -122 171 -202 202 -76 28 -191 28 -263 0z"/>
<path d="M16973 8353 c-13 -2 -23 -10 -23 -16 0 -7 83 -125 185 -261 102 -137
183 -251 181 -254 -3 -2 -31 6 -63 18 -78 30 -217 38 -298 17 -103 -26 -167
-55 -255 -112 -76 -50 -89 -56 -125 -51 -193 25 -301 14 -420 -44 -33 -16 -61
-28 -62 -26 -2 1 87 136 198 300 115 170 199 304 197 314 -3 15 -15 17 -95 14
-225 -6 -461 -118 -579 -275 -57 -76 -98 -159 -121 -249 -10 -37 -20 -68 -24
-68 -4 0 -29 31 -57 69 -88 121 -225 210 -379 246 -109 26 -319 17 -428 -18
-88 -29 -122 -48 -111 -65 3 -6 139 -102 301 -214 l296 -203 -123 -6 c-136 -7
-193 -22 -282 -72 -120 -70 -231 -183 -328 -339 -64 -100 -71 -128 -35 -128
12 0 200 34 416 75 216 42 395 74 398 71 2 -2 -15 -18 -39 -34 -108 -75 -204
-203 -246 -327 -25 -74 -27 -92 -26 -245 0 -154 2 -171 28 -250 35 -105 72
-180 89 -180 7 0 116 186 242 413 347 623 317 574 326 551 7 -15 387 -2034
433 -2301 7 -40 10 -73 6 -73 -4 0 -20 16 -35 35 -32 42 -99 90 -114 80 -6 -3
-11 -15 -11 -26 0 -10 -2 -19 -5 -19 -2 0 -33 20 -69 45 -84 59 -154 91 -169
76 -30 -30 81 -237 178 -334 31 -30 52 -57 48 -60 -4 -2 -39 -14 -78 -27 -38
-12 -161 -58 -273 -103 l-202 -80 -54 12 c-35 8 -74 27 -113 56 -71 53 -128
75 -192 75 -63 -1 -108 -19 -184 -73 -119 -85 -201 -85 -320 2 -77 57 -137 76
-211 68 -61 -6 -99 -23 -171 -78 -102 -77 -193 -74 -308 10 -77 57 -137 76
-211 68 -61 -6 -99 -23 -171 -78 -102 -77 -193 -74 -308 10 -77 57 -137 76
-211 68 -61 -6 -99 -23 -171 -78 -102 -77 -193 -74 -308 10 -77 57 -137 76
-211 68 -61 -6 -99 -23 -172 -79 -34 -26 -70 -43 -108 -50 -42 -9 -56 -16 -53
-28 2 -11 14 -14 50 -13 54 3 89 19 162 73 92 69 175 77 257 26 24 -15 67 -43
97 -61 102 -65 213 -55 326 28 103 76 182 86 267 33 24 -15 67 -42 96 -61 108
-68 220 -57 329 32 86 69 183 80 265 29 24 -15 67 -42 96 -61 58 -36 122 -50
185 -40 51 9 86 26 152 75 92 69 175 77 257 26 24 -15 67 -42 96 -61 108 -68
220 -57 329 32 89 72 186 80 271 25 26 -17 71 -46 100 -63 30 -18 50 -35 45
-40 -16 -16 -334 -129 -487 -173 -183 -53 -339 -89 -529 -120 -244 -41 -614
-76 -809 -76 -53 0 -103 -3 -112 -6 -17 -7 -21 -29 -7 -38 13 -8 373 11 566
30 570 55 919 147 1574 413 174 71 361 143 416 161 289 92 611 135 820 110
217 -26 388 -83 835 -278 311 -135 451 -186 561 -203 80 -13 109 -9 109 14 0
10 -25 17 -82 25 -96 14 -267 70 -427 141 -62 28 -116 52 -118 55 -3 2 21 21
53 41 78 50 109 46 221 -32 83 -57 86 -58 163 -61 89 -5 126 9 223 80 57 42
60 43 136 43 l78 0 88 -60 87 -60 92 0 c98 0 114 6 224 88 36 26 53 32 110 35
74 4 96 -5 208 -83 53 -37 63 -40 134 -44 89 -4 127 10 221 80 41 30 69 43
103 46 38 5 46 9 46 26 0 18 -5 19 -50 15 -33 -3 -66 -16 -97 -36 -118 -77
-137 -86 -188 -90 -66 -5 -113 10 -172 55 -78 59 -125 76 -208 71 -60 -3 -80
-8 -121 -35 -120 -78 -138 -87 -189 -91 -67 -5 -109 8 -175 58 -76 57 -125 73
-208 68 -57 -3 -78 -9 -118 -35 -120 -78 -138 -87 -189 -91 -65 -5 -110 9
-167 52 -24 18 -63 43 -88 56 -25 12 -47 24 -49 26 -2 2 11 21 28 42 17 22 31
48 31 57 0 16 -7 17 -65 12 -36 -4 -65 -4 -65 -1 0 3 23 39 51 81 68 100 124
222 110 236 -14 14 -76 -5 -175 -55 -43 -21 -80 -37 -83 -34 -3 2 11 44 31 93
49 123 84 268 98 405 15 149 10 157 -64 100 -68 -52 -202 -190 -259 -266 -27
-36 -45 -54 -47 -44 -3 14 46 379 123 928 19 135 69 495 111 800 41 305 79
558 83 562 4 4 123 -181 266 -412 143 -231 265 -420 272 -420 19 0 50 67 74
161 28 106 30 273 5 368 -36 140 -127 271 -237 342 -29 18 -48 34 -43 36 5 2
167 -19 358 -47 192 -27 355 -50 363 -50 47 0 -40 144 -161 266 -142 142 -247
189 -423 189 -62 0 -113 2 -113 5 0 3 108 88 240 189 131 101 245 189 251 197
18 22 1 33 -78 56 -100 29 -261 35 -359 14 -157 -35 -287 -121 -369 -245 -22
-33 -43 -61 -46 -61 -3 0 -13 26 -23 58 -58 185 -192 322 -386 393 -100 36
-254 56 -327 42z m-551 -153 c-1 -7 -104 -162 -227 -345 -259 -384 -275 -419
-141 -319 183 138 379 169 581 92 110 -41 330 -177 314 -192 -3 -3 -218 -46
-479 -95 -261 -50 -478 -95 -483 -100 -19 -19 5 -29 90 -36 196 -16 334 -75
448 -189 120 -121 188 -289 202 -498 4 -74 3 -98 -6 -98 -12 0 -845 685 -921
757 -20 18 -39 33 -43 33 -4 0 -17 -22 -30 -49 -49 -107 -580 -1052 -587
-1044 -15 16 -52 130 -66 201 -31 161 -12 331 52 460 64 130 208 259 362 323
48 20 64 40 43 53 -5 3 -220 -35 -477 -84 -258 -49 -472 -90 -476 -90 -18 0
-5 31 42 99 131 191 282 307 438 340 82 17 200 13 287 -9 82 -21 115 -15 85
15 -8 7 -159 113 -335 235 -176 122 -321 225 -323 230 -9 25 163 60 291 60
178 0 334 -59 451 -169 41 -39 124 -158 145 -209 8 -18 21 -32 30 -32 14 0 20
17 29 90 43 318 276 536 617 579 80 10 91 8 87 -9z m673 -710 c72 -11 136 -20
143 -20 26 0 10 -19 -25 -30 -154 -49 -277 -158 -347 -303 -56 -115 -76 -207
-76 -339 0 -122 6 -150 30 -146 9 2 176 148 370 326 195 177 357 322 362 322
4 0 8 -7 8 -16 0 -17 -295 -2159 -305 -2221 -3 -18 -9 -33 -14 -33 -4 0 -22
35 -39 78 -40 95 -108 205 -125 200 -28 -9 -50 -138 -53 -313 -2 -93 -4 -171
-4 -173 0 -1 -23 16 -51 38 -63 49 -85 49 -81 0 9 -101 57 -233 116 -322 25
-37 42 -68 40 -71 -2 -2 -47 6 -98 19 -100 24 -243 44 -315 44 -37 0 -42 2
-35 18 40 92 53 152 54 244 0 55 -4 100 -10 103 -15 9 -68 -26 -120 -79 -24
-25 -47 -46 -51 -46 -3 0 -9 30 -13 68 -9 85 -42 219 -63 251 l-16 25 -18 -23
c-10 -12 -33 -61 -51 -107 -17 -46 -35 -81 -39 -77 -10 11 -401 2111 -397
2135 2 15 95 -57 433 -336 236 -196 434 -355 440 -353 21 7 28 101 17 209 -34
328 -210 562 -484 646 -49 15 -88 30 -88 33 0 4 89 24 198 44 535 102 626 121
629 132 2 6 -12 26 -31 44 -34 31 -45 49 -28 49 4 0 66 -9 137 -20z m630
-2292 c-10 -94 -44 -242 -75 -333 -53 -156 -87 -213 -190 -320 -52 -55 -107
-118 -120 -140 -24 -39 -25 -39 -28 -14 -6 52 56 445 76 485 25 49 100 152
166 227 47 53 161 157 173 157 3 0 2 -28 -2 -62z m-1335 -205 c24 -87 32 -171
28 -281 -6 -137 -22 -195 -56 -200 -12 -2 -22 0 -22 5 0 4 -11 66 -24 136 -22
118 -23 133 -11 193 17 78 55 184 66 184 4 0 13 -17 19 -37z m227 -231 c-7
-89 -39 -185 -73 -219 -16 -16 -35 -23 -62 -23 -21 0 -41 2 -44 5 -8 9 20 143
38 177 22 43 113 138 132 138 13 0 14 -13 9 -78z m412 -8 c76 -83 141 -207
141 -270 0 -77 -32 -68 -105 28 -70 92 -134 241 -135 311 0 28 29 7 99 -69z
m769 -105 c-57 -107 -142 -211 -203 -250 -27 -17 -67 -47 -87 -65 l-38 -34
-47 21 c-68 29 -70 33 -38 81 70 106 233 241 367 303 91 42 96 37 46 -56z
m-1699 -25 c47 -53 80 -129 63 -146 -16 -16 -58 31 -92 104 -48 101 -37 117
29 42z m1691 -203 c0 -17 -99 -100 -149 -126 -57 -29 -116 -31 -116 -5 0 22
118 97 188 119 72 23 77 24 77 12z"/>
<path d="M12215 7243 c-44 -133 -129 -308 -198 -407 -26 -37 -47 -73 -47 -81
0 -63 114 91 200 270 52 109 110 272 110 311 0 13 -6 24 -13 24 -8 0 -29 -46
-52 -117z"/>
</g>
</svg>
