<?xml version="1.0" standalone="no"?>
<!DOCTYPE svg PUBLIC "-//W3C//DTD SVG 20010904//EN"
 "http://www.w3.org/TR/2001/REC-SVG-20010904/DTD/svg10.dtd">
<svg version="1.0" xmlns="http://www.w3.org/2000/svg"
 width="920.000000pt" height="680.000000pt" viewBox="0 0 920.000000 680.000000"
 preserveAspectRatio="xMidYMid meet">

<g transform="translate(0.000000,680.000000) scale(0.100000,-0.100000)"
fill="#000000" stroke="none">
<path d="M6125 6387 c-13 -10 -16 -21 -12 -39 7 -25 29 -47 193 -192 49 -44
122 -113 163 -154 l74 -73 68 -6 c51 -4 66 -9 62 -19 -3 -8 -11 -14 -18 -14
-6 0 -20 -9 -30 -20 -17 -18 -16 -21 29 -88 25 -38 54 -89 65 -115 15 -34 32
-54 68 -76 l48 -30 -33 -7 c-25 -5 -32 -11 -28 -23 3 -9 26 -90 51 -181 25
-91 48 -172 52 -180 3 -8 8 -29 10 -47 3 -26 0 -30 -15 -26 -10 2 -24 -3 -31
-11 -20 -24 -31 -19 -31 14 0 33 -21 48 -118 81 -70 24 -95 25 -90 2 3 -15
-23 -53 -36 -53 -2 0 -9 20 -15 44 l-11 43 -57 7 c-32 3 -67 4 -78 2 -11 -3
-32 -5 -47 -5 -23 -1 -27 -6 -33 -41 l-7 -41 -81 74 c-254 230 -564 439 -843
568 -344 159 -697 257 -1074 300 -168 20 -592 17 -754 -5 -278 -36 -544 -101
-785 -191 -68 -25 -130 -44 -137 -41 -7 3 -12 14 -11 26 1 20 2 20 14 4 7 -10
13 -13 13 -6 0 6 -17 28 -37 49 -21 20 -31 34 -23 29 8 -4 3 3 -11 16 -138
121 -174 144 -314 195 -61 23 -88 26 -215 29 -156 3 -213 -7 -301 -52 -49 -24
-66 -41 -55 -51 3 -4 15 3 26 15 12 12 32 22 46 22 17 0 23 4 18 12 -5 8 -2 9
10 5 10 -4 15 -3 11 3 -3 5 18 16 47 25 57 17 97 20 63 5 -15 -7 -11 -8 15 -4
62 9 194 7 240 -3 100 -21 229 -92 348 -189 17 -14 38 -24 46 -21 9 4 12 -2 8
-18 -3 -16 2 -28 17 -37 12 -7 21 -20 21 -28 0 -9 5 -21 12 -28 8 -8 4 -14
-18 -22 -16 -6 -40 -16 -54 -22 -44 -21 -45 -21 -38 -13 4 4 2 15 -5 24 -11
14 -10 15 8 1 40 -31 -8 24 -75 87 -115 107 -251 158 -402 151 -48 -2 -85 -1
-83 3 3 3 -8 4 -22 1 l-27 -5 25 -9 c13 -6 58 -7 101 -3 49 4 78 3 83 -4 3 -6
19 -11 35 -11 38 0 170 -63 200 -95 13 -14 29 -25 35 -25 6 0 22 -11 35 -25
12 -13 27 -22 31 -19 5 3 9 -4 9 -15 0 -11 6 -24 13 -28 22 -14 87 -141 87
-172 1 -9 7 -29 15 -46 l13 -30 1 28 c1 15 -6 44 -14 64 -12 29 -13 38 -3 46
9 6 8 7 -4 3 -11 -3 -19 2 -23 15 -6 19 9 49 25 49 8 0 43 -79 63 -145 14 -46
15 -48 16 -17 1 18 -6 48 -14 68 -8 19 -12 42 -9 52 5 13 4 14 -4 4 -7 -11
-12 -7 -20 16 -9 27 -8 31 14 41 14 6 26 11 28 11 7 0 44 -97 57 -147 7 -29
16 -53 19 -53 9 0 -4 77 -19 115 -9 20 -9 31 -2 33 6 2 8 8 5 14 -4 7 -9 6
-14 -2 -5 -8 -11 -1 -18 18 l-11 31 72 29 c235 97 535 172 857 214 150 20 596
17 765 -5 553 -71 1081 -275 1519 -587 195 -139 426 -342 425 -374 -2 -61 -14
-57 -57 19 -24 41 -45 75 -48 75 -27 0 -160 -87 -237 -156 -48 -43 -55 -60
-36 -96 14 -27 8 -30 -31 -16 -33 11 -35 10 -77 -36 -58 -65 -156 -213 -178
-269 -20 -53 -14 -93 14 -102 24 -7 74 13 144 58 50 32 277 175 325 204 18 11
20 17 12 33 -18 33 -11 39 31 22 38 -15 42 -14 85 6 24 12 51 22 60 22 9 0 12
5 8 12 -5 8 -2 9 10 5 9 -4 39 -2 65 4 43 9 49 14 55 41 3 18 10 28 14 22 149
-175 278 -354 374 -520 l36 -62 -9 -193 c-17 -368 -29 -546 -59 -834 -43 -428
-49 -510 -60 -855 -5 -173 -16 -389 -24 -480 -8 -91 -20 -223 -26 -295 -15
-172 -15 -503 -1 -585 7 -36 23 -89 37 -118 l25 -52 -64 -93 c-60 -85 -148
-202 -180 -237 -170 -188 -188 -210 -168 -210 33 0 256 261 383 447 27 40 51
73 53 73 2 0 23 -10 46 -22 81 -42 180 -34 233 19 41 41 49 89 36 216 -6 62
-12 173 -13 247 l-2 135 52 145 c76 214 123 413 159 675 25 180 25 625 1 810
-27 200 -71 405 -124 570 -46 145 -47 154 -45 259 1 60 -2 134 -8 165 -26 134
-28 169 -14 268 7 54 14 102 14 107 0 6 6 2 13 -7 11 -17 16 -16 72 3 l60 21
-53 -54 -52 -53 21 -63 c12 -34 27 -65 35 -68 7 -2 10 -11 8 -18 -4 -10 2 -11
33 -4 58 13 59 11 14 -22 -31 -22 -41 -35 -36 -47 24 -64 143 -222 167 -222 6
0 36 16 68 35 32 19 61 35 64 35 4 0 -11 -27 -34 -59 -22 -33 -40 -64 -40 -69
0 -24 195 -140 287 -171 73 -25 123 -27 162 -6 32 16 41 33 41 78 0 42 -31
148 -41 141 -5 -3 -6 1 -4 9 3 7 -1 29 -9 49 -13 31 -21 37 -58 44 l-43 7 33
14 c17 7 32 15 32 17 0 2 -15 39 -33 83 -31 71 -37 78 -63 79 -86 3 -85 3 -72
18 7 8 16 12 20 10 4 -3 11 3 16 12 6 10 16 15 26 11 10 -4 16 -1 16 7 0 24
-22 76 -32 76 -5 0 -6 4 -3 10 8 13 -32 105 -56 126 -17 16 -22 16 -62 0 -61
-23 -67 -20 -24 15 20 17 37 35 37 41 0 18 -172 178 -191 178 -10 0 -25 -7
-33 -16 -19 -18 -21 -11 -5 18 10 18 8 24 -12 40 -44 34 -158 108 -167 108 -5
0 -15 6 -21 14 -11 14 22 24 166 52 41 8 51 20 55 69 l4 40 18 -40 c10 -22 19
-41 20 -42 2 -2 50 4 107 13 57 9 132 16 167 15 l62 -2 18 38 17 38 3 -35 c2
-19 7 -38 10 -42 4 -4 46 -19 94 -32 48 -14 125 -43 171 -65 l85 -39 28 29
c15 16 29 27 31 26 1 -2 -2 -19 -7 -37 -7 -25 -7 -38 3 -46 25 -24 221 -116
257 -121 103 -14 110 124 15 273 -48 75 -237 264 -264 264 -4 0 -15 -13 -24
-30 -20 -32 -17 -36 15 -19 16 9 24 7 42 -10 12 -12 25 -21 29 -21 13 0 108
-104 153 -166 74 -103 99 -180 80 -241 -5 -17 -15 -23 -34 -23 -29 0 -142 49
-206 89 -37 23 -38 25 -31 65 15 87 16 106 8 106 -4 0 -29 -23 -54 -52 l-47
-52 -78 36 c-84 39 -196 78 -224 78 -17 0 -25 29 -33 119 -2 24 -27 44 -27 22
0 -6 5 -11 10 -11 6 0 10 -4 10 -9 0 -5 -8 -8 -17 -7 -12 1 -21 -13 -32 -46
-10 -29 -22 -48 -31 -48 -81 -2 -215 -15 -266 -25 -18 -4 -25 6 -48 65 -37 94
-52 91 -61 -10 -5 -56 -11 -80 -20 -80 -8 0 -26 -5 -42 -12 -15 -6 -31 -10
-36 -10 -4 1 -39 -5 -77 -14 -68 -15 -72 -15 -133 7 l-63 23 18 37 c10 21 18
45 18 54 0 23 24 67 52 92 l24 23 67 -45 c99 -67 105 -62 55 41 l-33 66 21 16
c34 27 85 54 134 73 25 9 52 20 61 23 12 5 28 -16 69 -94 30 -55 60 -100 67
-100 10 0 13 28 13 119 l0 118 46 7 c116 15 280 -1 302 -31 6 -9 12 -42 13
-72 2 -124 25 -138 64 -39 15 40 29 74 30 76 2 2 26 -8 54 -22 59 -30 58 -28
37 -171 -8 -49 -12 -92 -10 -94 10 -10 37 14 74 68 30 45 37 61 25 61 -9 0
-27 -12 -40 -27 l-25 -28 5 30 c3 17 9 56 14 88 l8 57 -36 21 c-57 33 -65 36
-99 44 -27 5 -32 4 -32 -12 -1 -10 -9 -34 -20 -53 l-19 -35 -1 30 c-2 34 -9
85 -14 101 -11 30 -270 52 -368 31 l-38 -8 0 -92 -1 -92 -42 78 c-40 75 -43
78 -72 72 -34 -6 -198 -86 -234 -113 l-23 -19 27 -53 27 -53 -34 22 c-64 42
-76 46 -97 27 -18 -16 -19 -16 -24 16 -2 18 -1 35 4 36 5 2 9 28 9 57 0 51 -2
54 -37 76 l-38 23 38 10 c37 9 37 10 37 62 0 61 -7 84 -25 84 -12 0 -13 -19
-1 -105 2 -16 -4 -20 -28 -21 -17 0 -44 -4 -61 -8 l-30 -8 26 -21 c15 -12 41
-30 59 -40 l33 -18 -7 -77 c-10 -121 -49 -254 -80 -274 -19 -13 -25 -9 -46 32
-11 22 -25 40 -30 40 -5 0 -7 9 -5 21 3 16 -40 218 -59 274 -2 6 -4 13 -6 17
-1 4 -8 29 -16 54 -19 63 -20 61 26 68 22 3 40 12 40 19 0 7 -27 27 -60 46
-56 30 -64 39 -100 110 -21 43 -50 91 -64 108 l-25 29 50 43 c33 29 47 47 41
53 -6 6 -49 9 -100 7 -58 -3 -88 0 -86 6 8 21 -340 340 -358 329 -6 -4 -8 -3
-4 4 3 6 -6 20 -20 31 -40 32 -26 55 29 46 56 -9 142 -34 192 -55 39 -17 41
-19 37 -59 -5 -48 3 -50 57 -19 l37 21 60 -31 c32 -18 71 -42 86 -55 l27 -22
-20 -40 c-23 -48 -19 -69 13 -59 13 4 42 13 65 20 l43 13 65 -65 65 -66 -70
-75 c-38 -41 -70 -79 -70 -84 0 -5 54 -9 120 -9 l119 0 10 -38 c6 -21 14 -52
17 -70 3 -17 15 -39 26 -49 20 -18 20 -18 13 17 -3 19 -16 65 -28 102 l-21 67
-99 3 -99 3 56 62 c31 33 56 64 56 69 0 13 -70 93 -114 129 l-43 35 -49 -15
c-27 -8 -50 -15 -51 -15 -2 0 4 18 13 41 10 23 13 44 8 49 -22 22 -179 110
-196 110 -10 0 -30 -7 -43 -16 -25 -16 -25 -16 -25 19 0 34 -2 36 -57 57 -70
26 -198 60 -228 60 -12 0 -29 -6 -40 -13z m-3665 -332 c10 -12 10 -15 -2 -15
-8 0 -15 7 -15 15 0 8 1 15 2 15 2 0 8 -7 15 -15z m4028 -861 c27 -5 32 -12
42 -54 6 -27 18 -56 25 -66 12 -17 16 -13 41 39 31 63 24 62 127 24 56 -22 57
-22 57 -62 0 -52 13 -73 34 -56 8 7 12 19 9 27 -3 7 2 17 11 20 24 9 70 -13
94 -46 12 -16 31 -30 43 -32 24 -3 86 -74 75 -85 -9 -9 -56 -9 -186 0 -58 5
-152 10 -209 12 -89 4 -106 8 -118 25 -41 58 -79 104 -88 104 -6 1 -11 -12
-13 -29 -8 -101 -13 -115 -36 -115 -23 0 -137 -35 -167 -51 -11 -5 -38 -1 -78
12 -34 12 -65 19 -68 15 -3 -3 1 -24 10 -46 l15 -40 -61 -37 c-34 -20 -109
-68 -167 -106 -111 -74 -198 -119 -212 -111 -29 18 39 147 155 291 l50 62 50
-19 c28 -11 55 -16 59 -12 5 5 -1 30 -13 56 l-21 48 24 25 c33 35 135 111 182
135 35 18 40 18 48 4 5 -8 15 -22 24 -30 8 -8 14 -19 14 -23 -2 -16 54 -103
66 -103 15 0 19 13 34 110 15 100 18 108 38 113 27 7 77 8 110 1z m655 -265
c91 -45 227 -130 227 -142 0 -4 -12 -25 -26 -47 -38 -57 -23 -67 43 -30 l55
31 66 -58 c96 -86 95 -82 27 -145 -78 -73 -68 -85 40 -48 l85 29 21 -42 c12
-22 30 -64 39 -93 l18 -52 -79 -33 c-108 -45 -104 -59 17 -59 l95 0 25 -55
c13 -31 24 -59 24 -63 0 -4 -26 -14 -57 -22 -97 -25 -72 -53 48 -54 31 -1 56
-5 56 -11 0 -5 12 -47 27 -93 33 -104 34 -157 4 -173 -35 -19 -123 -2 -215 41
-45 21 -83 37 -83 35 0 -2 -12 7 -27 20 -16 13 -39 32 -52 43 l-25 19 53 83
c67 106 62 122 -21 73 -35 -20 -65 -39 -68 -42 -3 -4 -17 -12 -32 -18 -25 -11
-29 -9 -65 35 -110 136 -112 145 -28 200 36 23 65 47 65 53 0 12 -39 9 -130
-7 -32 -5 -37 -3 -48 20 -6 15 -15 44 -18 65 -6 37 -4 39 65 101 63 56 87 90
63 90 -5 0 -42 -11 -82 -25 -40 -14 -79 -25 -85 -25 -12 0 -55 98 -55 123 0 7
25 28 55 47 68 43 73 65 13 57 -24 -4 -57 -9 -73 -12 -30 -6 -31 -5 -52 53
l-22 61 25 16 c28 18 31 41 8 73 -8 12 -12 22 -9 22 3 0 43 -18 88 -41z m-317
-44 c16 -8 48 -15 72 -15 50 0 49 13 22 -180 -11 -80 -23 -179 -27 -220 l-8
-75 -34 60 c-44 79 -170 263 -235 345 -82 102 -87 94 64 87 81 -3 128 -2 119
4 -23 14 -4 10 27 -6z m177 -72 c-7 -2 -19 -2 -25 0 -7 3 -2 5 12 5 14 0 19
-2 13 -5z m2 -33 c14 -5 23 -14 20 -20 -3 -5 5 -22 19 -37 15 -15 26 -35 26
-43 0 -12 -2 -12 -9 -2 -4 7 -28 19 -52 26 -44 13 -59 36 -45 72 6 17 7 17 41
4z m125 -64 c0 -3 -4 -8 -10 -11 -5 -3 -10 -1 -10 4 0 6 5 11 10 11 6 0 10 -2
10 -4z m-155 -132 c14 -17 26 -23 38 -19 25 10 21 25 -8 25 -14 0 -25 5 -25
10 0 6 23 10 50 10 l50 0 0 -60 c0 -59 0 -60 -28 -60 -16 0 -37 9 -47 20 -10
11 -31 20 -48 20 -22 0 -28 4 -23 16 3 9 6 27 6 40 0 31 9 30 35 -2z m105
-114 c0 -5 -11 -10 -25 -10 -14 0 -25 5 -25 10 0 6 11 10 25 10 14 0 25 -4 25
-10z m-37 -72 c33 -16 30 -29 -8 -41 -19 -7 -39 -6 -62 2 -18 7 -37 9 -43 6
-5 -3 -10 1 -10 9 0 9 14 19 33 25 45 13 59 13 90 -1z m17 -95 c0 -10 3 -35 6
-55 l7 -38 -82 0 c-47 0 -81 4 -81 10 0 6 5 10 12 10 9 0 9 3 0 12 -13 13 -17
72 -4 65 4 -3 16 -1 27 4 11 4 41 8 68 8 38 1 47 -2 47 -16z m-94 -114 c4 -7
26 -10 59 -6 52 5 53 5 59 -25 3 -17 6 -45 6 -62 l0 -31 -95 3 -95 3 0 65 0
64 29 0 c17 0 33 -5 37 -11z m69 -160 c21 -1 15 -4 -20 -9 -85 -14 -115 -12
-115 6 0 14 8 16 53 10 28 -3 66 -6 82 -7z m54 -66 c-1 -44 -26 -244 -28 -225
-1 8 -26 12 -91 12 -73 0 -90 3 -90 15 0 11 13 15 53 15 79 0 90 16 17 24
l-61 7 3 87 3 87 60 6 c33 3 77 6 98 7 37 2 37 2 36 -35z m65 -275 c43 -143
90 -365 113 -535 24 -180 24 -636 0 -818 -32 -234 -100 -523 -170 -714 l-24
-64 -6 69 c-4 38 -7 150 -7 249 1 188 5 292 41 920 18 324 19 404 10 540 -16
233 -14 491 4 473 2 -2 19 -56 39 -120z m-88 -32 c-3 -28 -5 -66 -6 -83 0 -30
-3 -33 -30 -33 -16 0 -30 -4 -30 -10 0 -12 35 -31 52 -28 9 2 15 -15 18 -58
l5 -61 -107 1 c-58 1 -109 3 -111 6 -3 3 -3 33 0 68 l6 62 43 0 c24 0 44 5 44
10 0 6 -19 10 -41 10 l-42 0 7 82 c4 45 9 84 12 87 2 2 35 5 73 5 38 1 73 4
77 9 4 4 13 2 21 -5 10 -8 13 -26 9 -62z m-186 -311 c0 -11 9 -14 43 -10 23 3
68 7 100 9 l57 3 0 -91 c0 -74 -4 -96 -19 -116 l-19 -25 -8 30 -8 30 -6 -25
c-4 -16 -14 -26 -28 -28 -22 -3 -30 12 -12 23 16 10 11 35 -6 35 -9 0 -22 -8
-29 -17 -11 -14 -15 -15 -29 -4 -9 8 -26 10 -46 6 -28 -6 -30 -9 -30 -55 0
-27 -5 -52 -12 -56 -8 -5 -9 13 -4 72 12 145 12 144 62 144 24 0 44 5 44 10 0
6 -20 10 -45 10 -49 0 -56 12 -33 50 15 24 28 26 28 5z m27 -207 c-2 -7 0 -21
5 -31 8 -16 7 -18 -11 -12 -15 5 -21 2 -21 -9 0 -9 -5 -16 -11 -16 -10 0 -4
52 8 73 7 12 35 8 30 -5z m81 -135 c-10 -2 -26 -2 -35 0 -10 3 -2 5 17 5 19 0
27 -2 18 -5z m67 -33 c15 -6 7 -9 -31 -9 -38 -1 -56 -6 -69 -21 -20 -22 -35
-26 -35 -10 0 6 7 10 16 10 8 0 12 5 9 10 -3 6 -17 10 -31 10 -13 0 -24 5 -24
10 0 12 137 12 165 0z m-188 -80 c15 0 35 4 43 10 9 5 19 5 27 -1 8 -7 32 -7
71 -2 l59 9 2 -47 c1 -46 -1 -48 -33 -59 -27 -9 -41 -8 -67 4 l-34 14 54 1
c46 1 52 3 41 16 -7 8 -23 15 -36 15 -34 0 -76 -18 -69 -30 3 -5 -1 -10 -9
-10 -9 0 -16 7 -16 15 0 11 -12 15 -50 15 l-50 0 0 35 c0 32 2 35 19 25 11 -5
32 -10 48 -10z m196 -178 l-6 -62 -34 20 c-41 24 -44 24 -37 5 4 -9 0 -15 -9
-15 -22 0 -31 32 -13 46 26 18 7 24 -80 24 -48 0 -86 5 -89 11 -4 6 -5 12 -3
14 2 2 61 7 131 11 78 4 127 11 127 17 0 7 3 7 9 2 5 -6 7 -38 4 -73z m-126
-47 c-4 -9 -56 -8 -67 2 -3 2 6 13 20 23 23 18 26 18 38 3 7 -10 11 -22 9 -28z
m119 -77 c-3 -13 -6 -33 -6 -45 0 -20 -5 -23 -36 -23 -20 0 -54 5 -75 12 -32
9 -42 9 -56 -4 -28 -24 -53 -30 -53 -13 0 8 -9 15 -20 15 -17 0 -20 7 -20 40
l0 40 136 0 136 0 -6 -22z m-38 -114 c27 -4 32 -9 32 -32 0 -42 -13 -56 -39
-43 -14 8 -21 8 -21 1 0 -5 -5 -10 -11 -10 -6 0 -9 7 -5 15 3 9 0 15 -9 15 -8
0 -18 7 -23 16 -7 13 -17 15 -38 10 -68 -17 -100 -18 -113 -2 -20 24 -5 32 34
17 29 -10 38 -10 55 2 21 15 78 19 138 11z m-88 -68 c0 -11 -19 -15 -25 -6 -3
5 1 10 9 10 9 0 16 -2 16 -4z m110 -89 c0 -90 -12 -157 -26 -157 -8 0 -14 -4
-14 -10 0 -5 7 -10 15 -10 12 0 15 -18 14 -110 l-1 -110 -37 -6 c-20 -3 -51
-10 -69 -16 -35 -10 -87 -5 -135 14 -30 12 -30 10 -20 151 3 42 10 77 15 77 6
0 8 -7 4 -15 -4 -12 3 -15 30 -15 l35 0 -18 25 c-10 13 -28 25 -41 25 -23 0
-23 1 -16 68 4 37 7 75 6 85 0 12 7 17 26 18 l27 1 -27 10 c-16 5 -28 13 -28
17 0 4 59 9 130 9 l130 2 0 -53z m-10 -490 c0 -3 -28 -8 -62 -11 -169 -15
-228 -17 -228 -8 0 10 91 23 182 26 31 0 62 6 69 13 9 9 15 9 25 -2 8 -7 14
-16 14 -18z m0 -97 l0 -50 -35 0 -34 0 14 -32 c7 -19 22 -34 33 -36 21 -3 32
-37 32 -99 0 -30 -2 -34 -15 -23 -12 10 -15 10 -15 -4 0 -9 -8 -16 -17 -16
-25 0 -3 -18 27 -22 32 -4 43 -48 12 -48 -11 0 -25 7 -32 16 -12 13 -16 12
-36 -13 -22 -27 -22 -28 -43 -9 -15 14 -28 17 -53 12 -18 -4 -59 -9 -90 -13
-53 -5 -58 -4 -58 15 0 27 50 44 109 36 25 -3 63 -2 83 3 l37 8 -35 40 c-20
22 -32 34 -29 27 5 -9 0 -11 -18 -7 -20 5 -24 3 -23 -17 1 -17 -5 -24 -21 -26
-18 -3 -23 2 -24 20 l0 23 -10 -23 c-9 -23 -9 -23 -39 -5 -33 19 -38 39 -16
68 12 17 16 18 32 5 15 -13 17 -13 12 0 -2 8 -14 16 -26 18 -19 3 -22 10 -22
56 0 30 3 67 6 84 6 30 7 31 83 37 42 3 92 10 111 14 19 5 50 9 68 10 32 1 32
1 32 -49z m-226 -385 c29 -12 48 -13 99 -5 93 15 147 13 147 -5 0 -9 -9 -15
-25 -15 -34 0 -32 -18 3 -22 47 -5 34 -33 -18 -36 -51 -4 -138 17 -119 28 23
15 -32 33 -83 27 -59 -7 -99 -26 -55 -27 15 0 27 -3 27 -7 0 -10 -42 -53 -52
-53 -4 0 -8 27 -8 59 0 59 2 63 41 70 4 0 23 -6 43 -14z m14 -86 c-10 -30 -33
-48 -45 -35 -5 5 44 66 53 66 2 0 -2 -14 -8 -31z m128 -94 c-4 -11 2 -15 20
-15 21 0 24 -4 19 -20 -5 -17 -2 -20 21 -20 15 0 36 7 46 17 17 15 18 14 18
-31 l0 -46 -162 2 c-158 3 -163 4 -166 24 -2 12 8 37 21 57 22 33 24 34 36 15
9 -14 19 -18 36 -14 13 3 27 2 30 -4 10 -17 25 -11 25 10 0 13 5 18 15 14 9
-4 15 0 15 10 0 9 7 16 16 16 10 0 14 -6 10 -15z m113 -164 c20 -13 1 -54 -34
-77 -22 -14 -35 -16 -80 -7 -38 7 -56 6 -58 -1 -4 -13 -98 43 -104 61 -4 10
26 11 127 6 119 -6 130 -5 124 10 -7 19 3 22 25 8z"/>
<path d="M6966 4925 c-3 -9 0 -15 9 -15 8 0 15 7 15 15 0 8 -4 15 -9 15 -5 0
-11 -7 -15 -15z"/>
<path d="M6955 3960 c-23 -6 -15 -8 35 -8 45 0 59 2 45 8 -24 10 -40 10 -80 0z"/>
<path d="M7018 2732 c-16 -2 -28 -9 -28 -16 0 -8 12 -16 28 -19 32 -6 35 -5
30 20 -2 13 -10 17 -30 15z"/>
<path d="M6826 2300 c-34 -33 -20 -48 23 -25 33 17 55 20 31 5 -10 -7 7 -10
59 -10 l73 0 -14 23 c-16 23 -51 35 -108 35 -25 0 -43 -8 -64 -28z"/>
<path d="M6890 2135 c0 -2 11 -11 24 -20 16 -11 30 -13 47 -6 23 8 22 9 -16
20 -44 12 -55 13 -55 6z"/>
<path d="M6910 2004 c-19 -7 -45 -11 -57 -9 -27 6 -75 -14 -70 -29 2 -6 13
-10 23 -9 65 7 117 5 123 -6 6 -9 14 -7 32 8 l24 20 -25 2 c-17 1 -20 3 -7 6
19 5 24 34 5 32 -7 -1 -29 -7 -48 -15z"/>
<path d="M6880 1630 c13 -8 12 -11 -4 -23 -12 -8 -15 -16 -9 -20 12 -7 63 29
63 44 0 5 -15 9 -32 9 -25 0 -29 -3 -18 -10z"/>
<path d="M1920 6110 l-25 -8 25 -2 c14 -2 68 -4 120 -5 52 -1 115 -6 140 -12
62 -14 191 -77 220 -108 13 -14 29 -25 35 -25 6 0 22 -11 35 -25 13 -14 29
-25 37 -25 7 0 13 -9 13 -19 0 -11 5 -23 12 -27 7 -5 8 -2 3 7 -6 11 -5 11 4
3 7 -6 14 -20 16 -30 2 -11 4 -21 4 -23 1 -2 7 2 14 8 8 6 18 7 22 3 4 -4 0 8
-11 26 -10 18 -52 62 -93 99 -148 130 -344 190 -516 159 -28 -5 -36 -4 -25 3
17 12 6 12 -30 1z m510 -126 c0 -1 -4 -5 -9 -8 -5 -3 -16 6 -26 20 l-16 25 25
-16 c14 -10 26 -19 26 -21z m121 -101 c13 -16 12 -17 -3 -4 -17 13 -22 21 -14
21 2 0 10 -8 17 -17z"/>
<path d="M1815 6079 c-59 -24 -75 -36 -75 -57 0 -12 5 -11 23 6 13 12 33 22
46 22 14 0 20 4 15 12 -5 8 -2 9 10 5 11 -4 15 -3 10 4 -4 8 1 9 17 4 17 -4
20 -3 10 3 -11 8 -11 10 0 15 8 3 10 6 4 6 -5 0 -32 -9 -60 -20z"/>
<path d="M1613 6040 c-10 -11 -21 -20 -26 -20 -9 0 -64 -61 -93 -104 -42 -63
-56 -86 -52 -86 3 0 21 24 41 54 20 30 64 82 99 115 34 34 59 61 55 61 -4 0
-15 -9 -24 -20z"/>
<path d="M1861 6029 c-61 -24 -91 -42 -91 -55 0 -19 17 -18 28 1 4 9 23 18 40
20 37 5 77 24 52 25 -13 0 -13 1 0 10 19 12 3 12 -29 -1z"/>
<path d="M1918 6023 c7 -3 16 -2 19 1 4 3 -2 6 -13 5 -11 0 -14 -3 -6 -6z"/>
<path d="M1653 5978 c-34 -24 -45 -45 -15 -29 17 9 59 51 51 51 -2 0 -19 -10
-36 -22z"/>
<path d="M1574 5897 c-35 -47 -73 -108 -58 -92 23 23 97 126 93 129 -2 2 -18
-15 -35 -37z"/>
<path d="M1652 5890 c-27 -27 -59 -69 -72 -92 -29 -54 -24 -49 34 30 26 35 53
65 62 69 14 5 40 43 29 43 -3 0 -27 -22 -53 -50z"/>
<path d="M1365 5605 c-4 -31 -5 -58 -3 -61 3 -2 8 21 12 52 4 31 5 59 2 61 -2
3 -8 -21 -11 -52z"/>
<path d="M1436 5584 c-19 -141 6 -273 79 -410 41 -78 44 -89 31 -102 -13 -13
-18 -13 -31 -2 -25 21 -67 99 -71 131 -2 17 -9 38 -14 47 -9 14 -10 12 -5 -8
5 -22 4 -23 -5 -7 -7 10 -9 25 -6 33 4 9 2 12 -5 8 -8 -4 -9 1 -4 16 4 14 3
20 -3 16 -15 -9 -23 22 -16 61 4 23 2 38 -5 43 -7 4 -16 29 -21 56 -8 44 -9
41 -4 -21 3 -38 14 -104 25 -145 18 -67 37 -107 106 -230 l20 -36 -94 -109
c-179 -210 -324 -430 -455 -689 -54 -108 -67 -141 -56 -147 10 -7 9 -9 -4 -9
-30 0 -151 -345 -206 -590 -43 -191 -46 -216 -29 -223 11 -4 17 11 26 63 6 38
8 76 5 84 -3 9 -2 16 4 16 5 0 20 44 32 98 12 53 38 144 56 202 19 58 34 115
34 128 0 12 4 22 9 22 5 0 15 17 22 38 51 159 201 451 333 652 111 168 314
425 347 438 4 2 15 -6 26 -17 34 -36 142 -118 170 -129 15 -6 45 -13 66 -17
21 -3 35 -10 33 -14 -3 -4 12 -13 33 -20 45 -13 65 -14 36 -1 -13 6 -1 7 35 3
65 -7 77 -13 29 -14 -32 -1 -31 -2 11 -10 25 -4 59 -8 75 -8 29 0 29 1 7 10
-13 5 -29 6 -35 2 -6 -4 -8 0 -5 9 5 12 -6 17 -58 22 -84 9 -197 43 -188 58 4
7 3 8 -4 4 -17 -10 -98 37 -162 93 l-55 49 20 21 21 21 59 -55 c67 -60 121
-91 178 -100 21 -3 35 -10 32 -14 -7 -13 29 -20 77 -15 24 2 35 1 25 -2 -27
-8 -10 -24 26 -24 26 0 33 4 34 20 2 17 -4 20 -47 20 -60 0 -183 37 -174 52 4
7 3 8 -5 4 -15 -10 -93 36 -148 87 -34 31 -41 43 -32 53 6 8 15 14 18 14 4 0
34 -25 67 -55 62 -57 85 -69 147 -80 21 -3 35 -10 32 -14 -8 -14 15 -18 83
-16 71 2 98 15 31 15 -58 0 -131 20 -198 55 -84 42 -202 162 -207 210 0 6 -4
19 -8 30 -5 11 -12 32 -18 47 -6 15 -14 25 -19 22 -5 -3 -6 2 -3 10 3 9 2 16
-4 16 -16 0 -23 31 -11 46 9 11 8 19 -6 34 -15 17 -17 31 -11 87 3 38 9 79 12
93 4 21 3 22 -5 8 -6 -9 -14 -49 -17 -90 -8 -98 15 -202 67 -305 37 -74 45
-113 22 -113 -14 0 -65 89 -57 101 5 8 3 9 -5 5 -8 -5 -12 -3 -10 5 3 25 -1
40 -10 35 -10 -7 -33 42 -25 55 3 5 -2 16 -11 25 -11 11 -14 26 -9 50 4 24 3
34 -6 34 -10 0 -12 24 -7 105 3 58 4 105 3 105 -2 0 -6 -21 -10 -46z m124
-309 c0 -5 -5 -3 -10 5 -5 8 -10 20 -10 25 0 6 5 3 10 -5 5 -8 10 -19 10 -25z"/>
<path d="M2611 5432 c-8 -18 -11 -35 -8 -38 8 -9 29 35 25 54 -2 12 -8 7 -17
-16z"/>
<path d="M2677 5435 c-4 -16 -10 -39 -13 -50 -5 -18 -4 -18 11 3 9 12 15 35
13 50 l-3 27 -8 -30z"/>
<path d="M2754 5439 c-4 -6 -10 -27 -15 -47 -6 -29 -5 -33 6 -21 7 8 16 29 20
47 7 32 2 42 -11 21z"/>
<path d="M2580 5340 c0 -16 -4 -30 -9 -30 -5 0 -15 -15 -22 -32 -11 -28 -78
-117 -115 -155 -7 -7 -21 -23 -31 -36 -10 -13 -25 -26 -33 -29 -8 -2 -15 -13
-15 -23 0 -10 -7 -20 -15 -22 -13 -4 -13 -3 0 6 8 5 12 13 8 16 -7 7 -58 -22
-70 -40 -4 -5 -8 -6 -8 -1 0 5 -8 2 -17 -6 -24 -21 -90 -41 -109 -34 -8 3 -12
2 -9 -3 3 -5 -3 -12 -12 -14 -14 -4 -12 -5 5 -6 12 0 53 10 90 22 37 13 83 27
103 31 20 3 56 20 79 37 47 34 67 34 23 -1 -15 -12 -28 -29 -28 -37 0 -9 -7
-19 -15 -21 -13 -5 -13 -3 -1 11 19 23 7 21 -37 -6 -74 -47 -152 -79 -177 -75
-13 3 -22 2 -20 -2 3 -4 -5 -10 -17 -13 -12 -4 -19 -9 -16 -13 4 -3 69 13 145
36 135 42 246 100 260 136 3 8 9 12 13 9 5 -3 17 6 28 20 11 14 23 25 27 25
20 0 -127 -140 -184 -176 -98 -61 -178 -97 -201 -91 -11 3 -20 0 -20 -5 0 -6
-7 -5 -16 2 -12 11 -15 11 -12 0 2 -8 -2 -14 -9 -15 -21 0 -27 -15 -6 -15 28
0 260 73 302 95 51 26 128 84 135 100 3 8 10 14 15 13 14 -4 56 46 79 94 40
83 83 213 73 216 -6 2 -11 10 -11 18 0 9 -4 12 -10 9 -5 -3 -10 -17 -10 -29 0
-42 -98 -205 -113 -189 -3 3 1 16 10 30 26 40 64 156 58 181 -8 32 -25 27 -25
-8 0 -16 -3 -30 -8 -30 -4 0 -18 -23 -30 -51 -32 -69 -40 -54 -13 22 14 36 20
71 17 85 -9 34 -26 30 -26 -6z m-70 -374 c0 -2 -8 -10 -17 -17 -16 -13 -17
-12 -4 4 13 16 21 21 21 13z m-70 -50 c0 -2 -8 -10 -17 -17 -16 -13 -17 -12
-4 4 13 16 21 21 21 13z"/>
<path d="M2031 4940 c-16 -14 -19 -20 -8 -20 8 0 22 -3 31 -6 11 -4 16 -1 16
10 0 9 10 21 23 26 20 8 20 9 -8 9 -16 0 -41 -9 -54 -19z"/>
<path d="M1950 4936 c0 -2 9 -6 20 -9 11 -3 20 -1 20 4 0 5 -9 9 -20 9 -11 0
-20 -2 -20 -4z"/>
<path d="M2042 4888 c-19 -19 -14 -38 11 -37 21 0 21 1 2 9 -19 8 -19 9 3 9
12 1 22 5 22 10 0 5 10 12 23 14 14 3 10 5 -13 6 -20 0 -41 -4 -48 -11z"/>
<path d="M2040 4810 c0 -12 24 -12 60 0 21 7 19 8 -17 9 -24 1 -43 -3 -43 -9z"/>
<path d="M3648 4789 c-28 -16 -21 -49 21 -112 55 -81 64 -168 30 -299 -11 -41
7 -36 -198 -57 -57 -6 -118 -18 -134 -26 -17 -8 -31 -14 -32 -13 -1 2 -7 23
-14 48 -27 91 -107 225 -135 225 -6 0 -16 9 -21 20 -15 28 -113 85 -147 85
-21 0 -32 -7 -40 -25 -10 -22 -7 -30 20 -68 70 -92 75 -110 70 -235 -3 -62 -9
-117 -14 -122 -5 -5 -65 -16 -134 -25 -69 -8 -133 -18 -142 -21 -16 -5 -18 3
-18 64 0 47 -4 73 -14 81 -21 18 -27 -9 -19 -94 3 -41 3 -75 0 -75 -3 0 -13
24 -23 53 -23 70 -60 144 -96 189 -40 51 -158 128 -196 128 -33 0 -62 -24 -40
-33 11 -4 11 -7 0 -14 -9 -7 -5 -20 21 -54 59 -78 62 -86 60 -194 -1 -55 -5
-113 -10 -130 -9 -28 -13 -30 -77 -38 -107 -11 -209 -35 -226 -52 -14 -15 -13
-18 4 -31 24 -17 136 -20 136 -2 0 6 7 5 18 -5 16 -15 42 -16 225 -10 206 6
207 6 207 -15 0 -20 -5 -21 -105 -24 -59 -2 -106 -7 -108 -13 -1 -7 590 -11
1756 -13 1558 -2 1757 0 1757 13 0 12 -18 15 -105 15 l-105 0 0 121 0 121 153
-7 c228 -10 375 -9 392 5 23 19 6 39 -46 54 -56 17 -246 49 -396 66 -85 10
-103 15 -108 31 -8 24 -21 24 -27 1 -5 -17 -12 -17 -129 -6 -155 15 -430 32
-614 39 -77 3 -175 8 -219 11 -60 5 -80 3 -87 -7 -6 -11 -11 -11 -21 -1 -9 9
-98 12 -370 12 -310 0 -359 2 -364 15 -4 9 -19 15 -35 15 -16 0 -29 5 -29 11
0 7 11 8 30 4 30 -7 31 -6 24 22 -15 62 -58 169 -86 215 -32 52 -123 133 -175
154 -38 16 -42 17 -65 3z m187 -169 c3 -6 -4 -10 -17 -10 -18 0 -20 2 -8 10
19 12 18 12 25 0z m-25 -81 c0 -11 -4 -17 -10 -14 -5 3 -10 15 -10 26 0 11 5
17 10 14 6 -3 10 -15 10 -26z m-690 -15 c0 -2 -11 -4 -25 -4 -14 0 -25 4 -25
9 0 4 11 6 25 3 14 -2 25 -6 25 -8z m675 -84 c3 -6 -1 -7 -9 -4 -18 7 -21 14
-7 14 6 0 13 -4 16 -10z m120 -10 c3 -5 2 -10 -4 -10 -5 0 -13 5 -16 10 -3 6
-2 10 4 10 5 0 13 -4 16 -10z m-168 -77 c-3 -10 -5 -4 -5 12 0 17 2 24 5 18 2
-7 2 -21 0 -30z m33 27 c0 -5 -5 -10 -11 -10 -5 0 -7 5 -4 10 3 6 8 10 11 10
2 0 4 -4 4 -10z m54 -65 c-4 -8 -10 -15 -15 -15 -4 0 -6 7 -3 15 4 8 10 15 15
15 4 0 6 -7 3 -15z m1071 -5 c3 -5 1 -10 -4 -10 -6 0 -11 5 -11 10 0 6 2 10 4
10 3 0 8 -4 11 -10z m-1280 -14 c14 0 23 -5 21 -11 -2 -5 -12 -9 -22 -7 -10 2
-31 4 -45 5 -14 1 -26 8 -26 14 0 8 9 10 24 7 12 -3 34 -7 48 -8z m1518 3 c42
0 56 -3 42 -8 -11 -5 -42 -8 -68 -6 -26 1 -50 -2 -53 -7 -9 -14 -24 1 -17 18
3 8 12 13 20 10 8 -3 42 -6 76 -7z m-1453 -8 c0 -6 -4 -13 -10 -16 -5 -3 -10
1 -10 9 0 9 5 16 10 16 6 0 10 -4 10 -9z m645 -1 c-3 -5 -11 -10 -16 -10 -6 0
-7 5 -4 10 3 6 11 10 16 10 6 0 7 -4 4 -10z m-107 -18 c2 -7 -2 -10 -12 -6 -9
3 -16 11 -16 16 0 13 23 5 28 -10z m1262 -2 c0 -13 -11 -13 -30 0 -12 8 -11
10 8 10 12 0 22 -4 22 -10z m-1370 -4 c0 -3 -4 -8 -10 -11 -5 -3 -10 -1 -10 4
0 6 5 11 10 11 6 0 10 -2 10 -4z m-685 -32 l70 -12 -77 -1 c-43 -1 -78 1 -78
3 0 2 -3 12 -7 22 -5 13 -3 15 8 8 8 -4 46 -14 84 -20z m1661 11 c-11 -8 -25
-15 -30 -15 -6 1 0 7 14 15 32 19 40 18 16 0z m469 -15 c3 -5 1 -10 -4 -10 -6
0 -11 5 -11 10 0 6 2 10 4 10 3 0 8 -4 11 -10z m-1115 -30 c0 -15 30 -12 31 3
0 10 2 10 6 0 3 -9 30 -13 82 -13 43 0 119 -3 168 -6 l91 -7 0 -34 0 -34 -149
3 c-127 3 -149 1 -150 -12 -1 -11 -3 -10 -6 2 -4 16 -32 18 -361 20 l-357 3
-3 38 -3 38 307 -1 c168 -1 309 1 312 4 9 10 32 7 32 -4z m-680 -40 l0 -39
-212 -3 c-305 -4 -778 6 -751 16 13 5 21 11 18 15 -2 4 22 7 53 7 31 -1 128 5
216 13 147 12 416 26 599 29 l77 2 0 -40z m-1133 24 c-3 -3 -12 -4 -19 -1 -8
3 -5 6 6 6 11 1 17 -2 13 -5z m2844 -8 c123 -7 239 -14 258 -15 18 -1 37 -4
42 -7 5 -3 9 -59 9 -125 l0 -119 -465 0 -465 0 0 24 0 24 145 4 c115 2 148 6
155 18 21 33 -25 51 -188 75 l-97 14 140 -4 c474 -16 674 -18 704 -5 35 14 40
34 13 49 -27 14 -180 44 -196 38 -7 -3 -17 -2 -22 3 -5 5 -56 12 -114 16 -86
6 -174 19 -149 23 3 1 106 -5 230 -13z m559 4 c0 -5 -5 -10 -11 -10 -5 0 -7 5
-4 10 3 6 8 10 11 10 2 0 4 -4 4 -10z m-850 -25 c222 -18 466 -51 489 -66 16
-10 -345 -5 -669 10 l-145 6 -3 37 -3 38 68 -4 c37 -3 156 -12 263 -21z
m-2405 -65 c3 -5 -1 -10 -9 -10 -9 0 -16 5 -16 10 0 6 4 10 9 10 6 0 13 -4 16
-10z m985 -17 c0 -13 -3 -13 -15 -3 -8 7 -12 16 -9 21 8 13 24 1 24 -18z
m-1250 7 c0 -5 -4 -10 -10 -10 -5 0 -10 5 -10 10 0 6 5 10 10 10 6 0 10 -4 10
-10z m970 -21 c0 -10 3 -19 8 -22 4 -2 1 -2 -6 0 -8 2 -19 0 -25 -4 -23 -14
-37 -11 -37 8 0 10 -3 18 -7 18 -16 -3 -24 1 -19 9 2 4 23 7 45 7 32 0 41 -3
41 -16z m70 -4 c0 -28 -17 -34 -27 -9 -3 9 0 20 8 25 19 12 19 12 19 -16z
m-534 2 c13 17 13 17 14 -2 0 -27 -13 -46 -26 -37 -14 10 -24 39 -16 47 4 4 9
-1 10 -10 3 -15 5 -15 18 2z m114 -3 c0 -2 -9 -4 -21 -4 -11 0 -18 4 -14 10 5
8 35 3 35 -6z m140 12 c0 -3 -4 -8 -10 -11 -5 -3 -10 -1 -10 4 0 6 5 11 10 11
6 0 10 -2 10 -4z m818 -8 c-5 -14 -38 -20 -38 -6 0 6 7 8 15 4 8 -3 15 -1 15
4 0 6 3 10 6 10 3 0 4 -5 2 -12z m78 -1 c4 -4 -7 -7 -24 -7 -17 0 -33 4 -36 9
-7 10 50 8 60 -2z m494 -11 c8 1 25 6 38 10 16 5 22 2 22 -10 0 -9 -2 -16 -4
-16 -2 0 -13 -3 -23 -6 -13 -4 -15 -3 -4 4 9 7 0 9 -33 8 -25 0 -46 -4 -46 -8
0 -18 -4 -24 -22 -36 -15 -11 -24 -11 -48 -1 -31 14 -31 29 1 29 11 0 22 7 25
15 4 8 10 12 15 9 5 -3 12 2 15 10 5 13 9 13 27 2 12 -8 29 -12 37 -10z m-947
-1 c-3 -9 -8 -14 -10 -11 -3 3 -2 9 2 15 9 16 15 13 8 -4z m687 6 c24 -7 24
-8 -7 -12 -21 -4 -34 -1 -37 8 -6 14 5 15 44 4z m-1465 -11 c-3 -5 -12 -10
-18 -10 -7 0 -6 4 3 10 19 12 23 12 15 0z m1065 4 c0 -7 -27 -34 -34 -34 -4 0
-1 9 6 20 12 19 28 27 28 14z m319 -15 c-22 -14 -33 -10 -19 6 7 8 17 12 22 9
6 -4 5 -10 -3 -15z m-1599 1 c0 -5 -4 -10 -10 -10 -5 0 -10 5 -10 10 0 6 5 10
10 10 6 0 10 -4 10 -10z m657 -12 c-3 -8 -6 -5 -6 6 -1 11 2 17 5 13 3 -3 4
-12 1 -19z m497 7 c17 -13 16 -14 -13 -13 -30 1 -38 8 -24 21 9 10 15 8 37 -8z
m611 4 c11 -17 2 -18 -19 -3 -17 12 -17 14 -4 14 9 0 20 -5 23 -11z m320 1
c-3 -5 -10 -10 -16 -10 -5 0 -9 5 -9 10 0 6 7 10 16 10 8 0 12 -4 9 -10z
m-2175 -15 c0 -8 -7 -15 -15 -15 -16 0 -20 12 -8 23 11 12 23 8 23 -8z m34 0
c-4 -8 -11 -15 -16 -15 -6 0 -5 6 2 15 7 8 14 15 16 15 2 0 1 -7 -2 -15z m456
6 c0 -6 -4 -13 -10 -16 -5 -3 -10 1 -10 9 0 9 5 16 10 16 6 0 10 -4 10 -9z
m640 0 c0 -6 -4 -13 -10 -16 -5 -3 -10 1 -10 9 0 9 5 16 10 16 6 0 10 -4 10
-9z m270 -1 c0 -5 -4 -10 -10 -10 -5 0 -10 5 -10 10 0 6 5 10 10 10 6 0 10 -4
10 -10z m180 6 c0 -3 -4 -8 -10 -11 -5 -3 -10 -1 -10 4 0 6 5 11 10 11 6 0 10
-2 10 -4z m-1770 -16 c0 -5 -8 -10 -17 -10 -15 0 -16 2 -3 10 19 12 20 12 20
0z m1475 0 c3 -5 1 -10 -4 -10 -6 0 -11 5 -11 10 0 6 2 10 4 10 3 0 8 -4 11
-10z m755 0 c0 -5 -5 -10 -11 -10 -5 0 -7 5 -4 10 3 6 8 10 11 10 2 0 4 -4 4
-10z m258 -8 c2 -7 -2 -10 -12 -6 -9 3 -16 11 -16 16 0 13 23 5 28 -10z
m-1715 1 c-7 -2 -19 -2 -25 0 -7 3 -2 5 12 5 14 0 19 -2 13 -5z m1922 -3 c3
-5 -1 -10 -9 -10 -9 0 -16 5 -16 10 0 6 4 10 9 10 6 0 13 -4 16 -10z m-2756
-16 c2 -2 -10 -4 -27 -4 -17 0 -34 4 -37 10 -5 9 53 3 64 -6z m437 -11 c-10
-10 -19 5 -10 18 6 11 8 11 12 0 2 -7 1 -15 -2 -18z m954 -34 l0 -29 -510 0
c-503 0 -510 0 -510 20 0 12 7 20 18 21 9 0 24 2 32 4 9 1 175 6 370 10 195 4
356 8 357 9 1 0 56 0 122 -2 l121 -3 0 -30z m973 21 c75 0 77 0 77 -25 l0 -25
-510 0 -510 0 0 31 0 32 433 -6 c237 -4 467 -7 510 -7z"/>
<path d="M2405 3836 c-133 -43 -201 -99 -356 -291 -54 -66 -208 -255 -344
-420 -136 -165 -255 -316 -265 -335 -31 -60 -39 -110 -42 -250 -2 -122 -5
-138 -25 -169 -32 -48 -31 -116 2 -161 32 -43 32 -65 0 -86 -13 -9 -37 -41
-51 -71 -23 -45 -27 -68 -27 -136 0 -94 23 -160 72 -206 25 -23 30 -36 32 -84
2 -34 -2 -62 -9 -69 -17 -17 -15 -116 4 -171 20 -59 89 -131 152 -160 42 -19
69 -22 243 -25 226 -5 293 5 342 48 29 25 41 28 118 31 73 3 92 8 127 31 47
32 77 72 67 89 -12 18 -56 -36 -48 -58 4 -14 3 -15 -6 -7 -9 8 -22 6 -49 -7
-23 -12 -57 -19 -94 -19 l-57 0 10 29 c14 39 8 102 -11 112 -8 4 -107 12 -220
18 -263 14 -392 39 -497 94 -42 21 -43 23 -43 72 1 45 4 52 33 70 18 11 43 42
57 70 21 42 25 64 25 140 0 108 -26 175 -81 207 -41 24 -45 53 -9 62 40 10 67
62 62 119 -4 52 -36 97 -69 97 -14 0 -18 8 -18 33 1 36 6 40 205 151 93 51
311 145 378 161 l27 7 0 -631 0 -631 124 0 123 0 32 88 c68 189 192 353 318
420 110 58 194 74 403 76 200 1 247 -7 354 -61 162 -82 318 -276 390 -484 31
-90 54 -117 48 -58 -5 57 -66 192 -129 287 l-63 94 0 458 0 458 163 6 c89 3
423 8 742 11 319 3 781 8 1028 12 l447 6 0 -491 0 -492 -262 -1 c-385 -1 -480
-9 -562 -47 -127 -59 -252 -212 -259 -316 -3 -54 16 -44 34 19 49 163 200 286
375 306 41 4 217 8 390 8 312 0 316 0 362 -23 95 -48 192 -185 192 -271 0 -17
6 -25 16 -25 14 0 16 8 10 47 -15 111 -107 232 -214 282 l-52 24 0 489 0 488
198 0 c108 0 227 3 263 5 l66 5 7 -47 c3 -25 6 -95 6 -154 0 -74 4 -109 11
-109 8 0 8 -4 1 -13 -7 -8 -12 -74 -13 -162 -1 -83 -2 -174 -3 -204 -1 -37 3
-56 12 -59 10 -3 13 8 11 45 -1 27 0 53 3 59 3 5 7 52 8 104 2 52 4 114 5 138
1 24 -2 45 -7 48 -4 3 -4 13 1 22 11 21 3 105 -11 113 -7 4 -7 9 1 13 15 9 14
86 0 86 -8 0 -8 4 -1 13 19 23 -18 360 -59 537 -21 90 -62 216 -87 265 -33 66
-120 180 -170 225 -29 26 -77 59 -106 74 -116 59 -5 56 -1936 55 l-1775 0 -70
-23z m3686 -24 c37 -12 96 -41 130 -65 l64 -42 -1012 -3 c-556 -1 -1470 -1
-2030 0 l-1018 3 63 42 c66 44 131 69 210 83 26 4 830 7 1787 6 l1740 -1 66
-23z m-2481 -516 l0 -373 -869 -8 c-478 -4 -873 -5 -879 -1 -11 6 -255 -10
-285 -20 -11 -4 -18 -2 -16 4 2 6 145 182 317 391 l313 381 709 0 710 0 0
-374z m240 -1 l0 -375 -105 0 -105 0 0 375 0 375 105 0 105 0 0 -375z m1022 4
c2 -204 1 -373 -1 -375 -2 -2 -226 -4 -498 -4 l-493 0 0 375 0 375 495 0 495
0 2 -371z m1495 299 c71 -103 98 -162 132 -281 28 -98 78 -374 69 -382 -2 -2
-377 -5 -833 -6 l-830 -2 -3 371 -2 372 709 0 709 0 49 -72z m211 -729 l3 -27
-253 -6 c-139 -3 -698 -11 -1243 -16 -544 -6 -1444 -15 -2000 -20 -655 -7
-1028 -14 -1060 -22 -58 -12 -255 -88 -337 -129 -31 -16 -99 -53 -152 -84 -53
-30 -100 -55 -106 -55 -13 0 -13 81 1 155 10 57 42 129 73 169 38 48 45 48
1681 52 842 3 1539 6 1550 8 11 2 430 3 930 2 l910 -1 3 -26z m-2968 -540 l0
-441 -57 52 c-71 65 -137 103 -238 137 -76 26 -90 27 -265 27 -156 0 -199 -4
-274 -22 -161 -40 -272 -118 -366 -258 -54 -82 -110 -194 -130 -261 l-13 -43
-99 0 -98 0 2 618 3 617 400 5 c220 3 565 6 768 8 l367 2 0 -441z m-2136 19
c35 -49 9 -138 -39 -138 -31 0 -55 35 -55 80 0 45 24 80 55 80 13 0 31 -10 39
-22z m-55 -284 c27 -34 44 -125 36 -189 -7 -55 -42 -136 -61 -142 -19 -6 -54
61 -65 125 -13 70 0 148 31 200 24 39 33 40 59 6z m75 -543 c104 -50 286 -78
521 -82 166 -3 165 -2 165 -45 0 -69 -56 -134 -132 -155 -26 -7 -115 -9 -242
-7 -178 3 -206 6 -246 24 -51 23 -103 71 -126 116 -30 58 -36 178 -8 178 3 0
34 -13 68 -29z"/>
<path d="M2212 3643 c-12 -5 -494 -586 -525 -634 -15 -23 -15 -27 -1 -47 15
-21 20 -22 217 -22 111 0 208 4 216 9 15 9 221 623 221 658 0 12 -9 27 -19 33
-20 10 -86 12 -109 3z m97 -40 c0 -10 -46 -155 -102 -323 l-102 -305 -198 -3
c-171 -2 -198 0 -195 12 2 9 118 155 258 326 l254 310 43 0 c35 0 43 -3 42
-17z"/>
<path d="M2418 3635 c-24 -14 -38 -48 -128 -321 -55 -168 -100 -312 -100 -320
0 -8 9 -23 20 -34 19 -19 33 -20 400 -20 l381 0 24 25 25 24 0 304 c0 285 -1
306 -19 328 l-19 24 -279 2 c-231 2 -283 0 -305 -12z m582 -35 c6 -9 10 -141
10 -307 0 -252 -2 -294 -16 -307 -13 -14 -62 -16 -383 -16 -312 0 -370 2 -381
15 -10 12 7 70 85 307 65 197 104 299 118 311 19 16 42 18 289 15 226 -3 270
-5 278 -18z"/>
<path d="M3105 3626 l-25 -25 0 -304 c0 -293 1 -305 21 -331 l20 -26 203 0
c166 0 205 3 224 16 22 15 22 16 22 338 0 289 -2 325 -17 337 -12 11 -65 15
-219 17 l-204 3 -25 -25z m423 -18 c9 -9 12 -94 12 -319 0 -271 -2 -308 -16
-313 -31 -12 -389 -7 -402 6 -9 9 -12 91 -12 309 0 257 2 300 16 313 13 13 46
16 203 16 132 0 191 -4 199 -12z"/>
<path d="M3962 3635 c-57 -25 -62 -51 -62 -345 0 -214 3 -266 15 -290 31 -59
37 -60 457 -60 362 0 385 1 415 20 49 29 54 64 51 357 -3 283 -5 290 -64 318
-46 22 -762 22 -812 0z m820 -43 c23 -22 23 -25 23 -298 l0 -276 -28 -24 -28
-24 -375 0 c-404 0 -424 2 -438 52 -3 13 -6 138 -6 278 0 275 3 289 54 310 11
5 191 8 398 7 l377 -2 23 -23z"/>
<path d="M3256 2639 c-48 -12 -103 -44 -116 -69 -13 -24 -13 -66 0 -90 6 -11
32 -32 58 -47 42 -25 57 -28 137 -28 77 0 96 4 134 25 25 14 54 40 65 59 19
34 19 34 0 70 -36 67 -173 107 -278 80z m196 -46 c9 -10 9 -13 -4 -13 -28 0
-222 -20 -246 -25 -18 -5 -23 -11 -20 -33 3 -26 5 -27 88 -35 47 -4 112 -11
145 -16 l60 -8 -30 -13 c-17 -8 -65 -14 -110 -14 -64 -1 -88 4 -121 21 -123
65 -25 165 149 153 42 -3 82 -11 89 -17z m40 -61 c-7 -2 -12 -10 -12 -18 0
-11 -15 -13 -77 -8 -159 13 -168 20 -43 30 105 9 164 7 132 -4z m36 -37 c-3
-3 -9 2 -12 12 -6 14 -5 15 5 6 7 -7 10 -15 7 -18z"/>
<path d="M629 3133 c-21 -176 -18 -652 4 -813 37 -264 104 -533 192 -765 98
-261 276 -584 447 -815 135 -181 280 -340 311 -340 14 0 -2 23 -58 83 -494
530 -795 1200 -875 1947 -5 47 -9 182 -10 300 -1 192 4 276 26 466 6 44 4 54
-8 54 -12 0 -19 -25 -29 -117z"/>
<path d="M5527 2664 c-20 -21 13 -24 229 -24 184 0 235 3 232 13 -4 9 -60 13
-229 15 -124 1 -228 -1 -232 -4z"/>
<path d="M5520 2585 c0 -13 33 -15 235 -15 202 0 235 2 235 15 0 13 -33 15
-235 15 -202 0 -235 -2 -235 -15z"/>
<path d="M5520 2525 c0 -13 33 -15 235 -15 202 0 235 2 235 15 0 13 -33 15
-235 15 -202 0 -235 -2 -235 -15z"/>
<path d="M5520 2455 c0 -13 33 -15 235 -15 202 0 235 2 235 15 0 13 -33 15
-235 15 -202 0 -235 -2 -235 -15z"/>
<path d="M5525 2399 c-16 -25 20 -29 236 -27 191 3 224 5 224 18 0 13 -33 15
-227 18 -159 2 -228 -1 -233 -9z"/>
<path d="M5520 2325 c0 -13 33 -15 235 -15 202 0 235 2 235 15 0 13 -33 15
-235 15 -202 0 -235 -2 -235 -15z"/>
<path d="M6578 2040 c-7 -82 -9 -97 -28 -198 -6 -34 -8 -66 -5 -71 3 -6 1 -12
-4 -15 -5 -3 -12 -27 -16 -53 -9 -63 -33 -136 -49 -148 -7 -5 -18 -27 -25 -47
-17 -50 -89 -113 -147 -127 -53 -14 -59 -11 -74 33 -7 21 -19 36 -33 40 -16 4
-18 8 -9 14 9 6 5 18 -17 49 -65 89 -150 135 -276 148 -80 7 -478 -12 -503
-24 -10 -5 -48 -24 -85 -42 -78 -37 -177 -124 -231 -201 -65 -95 -16 -89 -671
-88 -611 0 -604 -1 -647 47 -9 10 -30 51 -46 90 -16 39 -42 93 -57 120 -38 63
-121 151 -148 155 -12 2 -22 10 -22 18 0 18 -92 65 -170 86 -70 18 -355 31
-355 15 0 -5 -26 -10 -58 -10 -164 0 -346 -145 -439 -348 -18 -40 -22 -58 -14
-66 13 -13 11 -16 48 63 16 36 47 87 67 113 20 26 34 52 31 58 -4 5 2 12 12
15 10 4 43 26 73 49 30 23 89 55 130 71 72 28 82 29 250 29 115 0 194 -5 230
-14 66 -16 166 -62 199 -91 13 -11 33 -20 43 -20 11 0 16 -5 13 -10 -4 -6 9
-28 28 -51 41 -47 95 -144 120 -214 19 -53 56 -98 99 -121 22 -12 128 -14 610
-14 564 0 585 1 621 20 l37 20 0 -36 c0 -25 3 -33 13 -28 8 5 7 2 -2 -9 -10
-13 -12 -36 -8 -91 10 -120 60 -227 151 -325 55 -59 158 -131 187 -131 9 0 19
-4 21 -10 4 -12 96 -36 173 -44 129 -15 312 39 414 122 61 49 66 53 108 108
65 86 103 184 118 304 l5 45 134 0 c128 0 134 1 174 28 59 38 82 89 82 177 0
66 -2 74 -29 101 -16 16 -40 29 -53 29 -19 0 -23 5 -23 29 0 16 3 27 6 25 10
-6 41 154 34 176 -4 12 -2 20 5 20 8 0 11 11 8 30 -3 17 -1 30 3 30 4 0 10 33
14 73 3 39 8 79 11 88 3 9 -2 19 -11 23 -10 3 -16 -1 -17 -14z m-815 -496 c64
-21 149 -100 183 -171 40 -80 45 -194 13 -278 -31 -82 -122 -174 -199 -201
-127 -43 -265 -9 -355 87 -70 75 -89 126 -89 239 0 112 18 162 86 236 94 102
223 133 361 88z m817 -34 c19 -19 26 -64 20 -125 -3 -40 -38 -90 -76 -112 -34
-20 -54 -23 -153 -23 -104 0 -117 2 -138 22 -13 12 -23 32 -23 45 0 19 5 23
28 23 47 0 125 27 168 59 37 27 64 67 78 114 8 25 70 23 96 -3z m-1280 -331
c0 -6 -4 -7 -10 -4 -5 3 -10 11 -10 16 0 6 5 7 10 4 6 -3 10 -11 10 -16z m410
-489 c0 -5 -8 -10 -17 -10 -15 0 -16 2 -3 10 19 12 20 12 20 0z m-160 -10 c0
-5 -7 -10 -16 -10 -8 0 -12 5 -9 10 3 6 10 10 16 10 5 0 9 -4 9 -10z"/>
<path d="M5577 1530 c-85 -22 -163 -84 -205 -164 -24 -45 -27 -62 -27 -146 0
-84 3 -101 27 -146 76 -145 250 -208 396 -144 66 28 144 112 166 176 21 61 21
167 0 228 -22 63 -100 148 -163 174 -58 26 -142 35 -194 22z m63 -40 c0 -5 -2
-10 -4 -10 -3 0 -8 5 -11 10 -3 6 -1 10 4 10 6 0 11 -4 11 -10z m27 -45 c8
-22 -6 -33 -17 -15 -13 20 -12 30 0 30 6 0 13 -7 17 -15z m-93 -86 c-3 -5 -10
-7 -15 -3 -5 3 -7 10 -3 15 3 5 10 7 15 3 5 -3 7 -10 3 -15z m322 -46 c-10
-10 -19 5 -10 18 6 11 8 11 12 0 2 -7 1 -15 -2 -18z m-356 -3 c0 -5 -4 -10
-10 -10 -5 0 -10 5 -10 10 0 6 5 10 10 10 6 0 10 -4 10 -10z m170 0 c0 -5 -4
-10 -10 -10 -5 0 -10 5 -10 10 0 6 5 10 10 10 6 0 10 -4 10 -10z m100 -80 c0
-5 -2 -10 -4 -10 -3 0 -8 5 -11 10 -3 6 -1 10 4 10 6 0 11 -4 11 -10z m-390
-16 c0 -7 -27 -34 -34 -34 -4 0 -1 9 6 20 12 19 28 27 28 14z m470 -38 c0 -11
-19 -15 -25 -6 -3 5 1 10 9 10 9 0 16 -2 16 -4z m-440 -37 c0 -6 -4 -7 -10 -4
-5 3 -10 11 -10 16 0 6 5 7 10 4 6 -3 10 -11 10 -16z m305 -78 c-6 -5 -25 10
-25 20 0 5 6 4 14 -3 8 -7 12 -15 11 -17z m45 19 c0 -5 -2 -10 -4 -10 -3 0 -8
5 -11 10 -3 6 -1 10 4 10 6 0 11 -4 11 -10z m51 -47 c-12 -20 -14 -14 -5 12 4
9 9 14 11 11 3 -2 0 -13 -6 -23z m-231 7 c0 -5 -4 -10 -10 -10 -5 0 -10 5 -10
10 0 6 5 10 10 10 6 0 10 -4 10 -10z m52 -76 c-4 -22 -19 -40 -27 -32 -3 3 -3
18 1 32 7 30 31 30 26 0z m98 16 c0 -5 -2 -10 -4 -10 -3 0 -8 5 -11 10 -3 6
-1 10 4 10 6 0 11 -4 11 -10z"/>
<path d="M3009 1790 c-76 -12 -161 -43 -227 -82 -75 -46 -173 -153 -212 -232
-28 -57 -31 -68 -19 -83 12 -15 12 -16 -2 -11 -13 5 -19 -3 -27 -35 -14 -55
-14 -200 0 -257 19 -81 76 -187 135 -250 123 -133 266 -195 448 -194 137 1
250 41 364 128 57 43 145 152 135 167 -3 5 0 9 6 9 14 0 40 60 33 77 -3 7 0
13 6 13 5 0 15 17 20 38 77 298 -106 610 -409 696 -72 20 -181 27 -251 16z
m131 -110 c0 -5 -5 -10 -11 -10 -5 0 -7 5 -4 10 3 6 8 10 11 10 2 0 4 -4 4
-10z m321 -73 c-13 -13 -26 -3 -16 12 3 6 11 8 17 5 6 -4 6 -10 -1 -17z m-247
-63 c22 -8 56 -27 75 -42 20 -15 39 -26 44 -24 4 1 7 -3 7 -9 0 -6 11 -24 24
-40 40 -47 66 -131 66 -212 -1 -163 -102 -293 -259 -333 -148 -37 -293 33
-372 179 -31 57 -34 69 -34 152 0 78 4 98 29 152 74 162 251 236 420 177z
m226 -184 c0 -5 -2 -10 -4 -10 -3 0 -8 5 -11 10 -3 6 -1 10 4 10 6 0 11 -4 11
-10z m40 -20 c0 -5 -5 -10 -11 -10 -5 0 -7 5 -4 10 3 6 8 10 11 10 2 0 4 -4 4
-10z m-825 -299 c3 -5 1 -12 -5 -16 -5 -3 -10 1 -10 9 0 18 6 21 15 7z m72
-47 c-3 -3 -12 -4 -19 -1 -8 3 -5 6 6 6 11 1 17 -2 13 -5z m360 -270 c-3 -3
-12 -4 -19 -1 -8 3 -5 6 6 6 11 1 17 -2 13 -5z"/>
<path d="M3020 1527 c-91 -26 -160 -86 -202 -175 -26 -57 -36 -172 -17 -217 7
-16 13 -36 15 -42 5 -26 46 -83 81 -114 175 -153 439 -64 498 168 27 107 -5
221 -87 302 -70 70 -196 104 -288 78z m70 -32 c0 -6 -38 -45 -44 -45 -3 0 -4
9 -3 20 1 12 7 18 14 16 7 -3 13 -1 13 4 0 6 5 10 10 10 6 0 10 -2 10 -5z
m-60 -59 c0 -3 -4 -8 -10 -11 -5 -3 -10 -1 -10 4 0 6 5 11 10 11 6 0 10 -2 10
-4z m70 -21 c0 -8 -7 -15 -16 -15 -14 0 -14 3 -4 15 7 8 14 15 16 15 2 0 4 -7
4 -15z m-190 -55 c0 -5 -8 -10 -17 -10 -15 0 -16 2 -3 10 19 12 20 12 20 0z
m198 -3 c-1 -2 4 -12 12 -22 11 -14 11 -17 1 -11 -10 7 -12 4 -7 -12 4 -11 3
-23 -2 -26 -5 -3 -10 16 -11 41 -1 26 1 44 5 41 3 -4 4 -8 2 -11z m132 3 c0
-5 -5 -10 -11 -10 -5 0 -7 5 -4 10 3 6 8 10 11 10 2 0 4 -4 4 -10z m-320 -25
c-7 -8 -17 -12 -23 -8 -6 4 -3 9 9 14 27 11 28 11 14 -6z m50 1 c0 -19 -17
-29 -25 -16 -3 5 -1 10 5 10 6 0 8 5 5 10 -3 6 -1 10 4 10 6 0 11 -6 11 -14z
m385 5 c3 -5 1 -12 -5 -16 -5 -3 -10 1 -10 9 0 18 6 21 15 7z m-275 -11 c0 -6
-7 -13 -17 -17 -14 -5 -13 -8 5 -14 27 -10 28 -25 3 -38 -16 -9 -20 -6 -24 17
-5 28 7 62 23 62 6 0 10 -5 10 -10z m205 -10 c3 -5 1 -10 -4 -10 -6 0 -11 5
-11 10 0 6 2 10 4 10 3 0 8 -4 11 -10z m-428 -6 c-3 -3 -12 -4 -19 -1 -8 3 -5
6 6 6 11 1 17 -2 13 -5z m23 -23 c0 -14 -5 -18 -20 -14 -19 5 -20 6 -3 19 23
17 23 17 23 -5z m464 4 c3 -8 1 -15 -4 -15 -6 0 -10 7 -10 15 0 8 2 15 4 15 2
0 6 -7 10 -15z m-436 -45 c-1 -17 -4 -28 -7 -24 -9 8 -8 54 0 54 4 0 7 -14 7
-30z m72 10 c0 -5 -4 -10 -10 -10 -5 0 -10 5 -10 10 0 6 5 10 10 10 6 0 10 -4
10 -10z m66 -26 c8 3 11 0 7 -10 -6 -15 -43 -20 -43 -5 0 5 -3 18 -7 28 -7 17
-6 17 11 0 10 -10 25 -16 32 -13z m-56 -34 c8 -5 12 -12 8 -15 -7 -7 27 -45
41 -45 5 0 11 -7 15 -15 3 -8 3 -15 0 -15 -9 0 -94 83 -94 92 0 11 11 10 30
-2z m390 0 c0 -5 -7 -10 -16 -10 -8 0 -12 5 -9 10 3 6 10 10 16 10 5 0 9 -4 9
-10z m-64 -31 c1 -20 -2 -26 -7 -17 -7 10 -9 10 -9 1 0 -7 -4 -13 -10 -13 -15
0 -12 27 6 44 20 20 19 21 20 -15z m-188 -4 c4 -4 -2 -5 -13 -3 -11 2 -25 -3
-32 -12 -13 -17 -28 -8 -20 14 6 15 51 16 65 1z m-237 -58 c-10 -9 -11 -8 -5
6 3 10 9 15 12 12 3 -3 0 -11 -7 -18z m69 13 c0 -5 -4 -10 -10 -10 -5 0 -10 5
-10 10 0 6 5 10 10 10 6 0 10 -4 10 -10z m357 -12 c-3 -8 -6 -5 -6 6 -1 11 2
17 5 13 3 -3 4 -12 1 -19z m-307 2 c0 -5 -4 -10 -10 -10 -5 0 -10 5 -10 10 0
6 5 10 10 10 6 0 10 -4 10 -10z m100 -32 c0 -7 3 -24 6 -38 5 -17 4 -22 -4
-15 -16 15 -26 65 -13 65 6 0 11 -6 11 -12z m-200 -18 c0 -5 -4 -10 -9 -10 -6
0 -13 5 -16 10 -3 6 1 10 9 10 9 0 16 -4 16 -10z m330 -80 c0 -5 -4 -10 -10
-10 -5 0 -10 5 -10 10 0 6 5 10 10 10 6 0 10 -4 10 -10z"/>
<path d="M5525 1740 c3 -5 11 -10 16 -10 6 0 7 5 4 10 -3 6 -11 10 -16 10 -6
0 -7 -4 -4 -10z"/>
<path d="M5840 1705 c0 -17 2 -18 24 -9 23 9 20 24 -4 24 -11 0 -20 -7 -20
-15z"/>
<path d="M5925 1680 c-3 -5 1 -10 9 -10 9 0 16 5 16 10 0 6 -4 10 -9 10 -6 0
-13 -4 -16 -10z"/>
<path d="M5165 1550 c-3 -5 -1 -10 4 -10 6 0 11 5 11 10 0 6 -2 10 -4 10 -3 0
-8 -4 -11 -10z"/>
</g>
</svg>
